<?xml version="1.0" encoding="UTF-8" standalone="no"?>
<!DOCTYPE svg PUBLIC "-//W3C//DTD SVG 1.1//EN"
 "http://www.w3.org/Graphics/SVG/1.1/DTD/svg11.dtd">
<!-- Generated by graphviz version 2.43.0 (0)
 -->
<!-- Title: G Pages: 1 -->
<svg width="1119pt" height="1140pt"
 viewBox="0.00 0.00 1118.60 1139.60" xmlns="http://www.w3.org/2000/svg" xmlns:xlink="http://www.w3.org/1999/xlink">
<g id="graph0" class="graph" transform="scale(1 1) rotate(0) translate(28.8 1110.8)">
<title>G</title>
<polygon fill="white" stroke="transparent" points="-28.8,28.8 -28.8,-1110.8 1089.8,-1110.8 1089.8,28.8 -28.8,28.8"/>
<text text-anchor="start" x="8" y="-1063" font-family="Helvetica,sans-Serif" font-weight="bold" font-size="20.00">Indradhanu — State and Memory Scoping per Agent</text>
<g id="clust1" class="cluster">
<title>cluster_sub</title>
<path fill="#f5f3ff" stroke="#c4b5fd" d="M48,-811C48,-811 961,-811 961,-811 967,-811 973,-817 973,-823 973,-823 973,-912 973,-912 973,-918 967,-924 961,-924 961,-924 48,-924 48,-924 42,-924 36,-918 36,-912 36,-912 36,-823 36,-823 36,-817 42,-811 48,-811"/>
<text text-anchor="start" x="44" y="-910.6" font-family="Helvetica,sans-Serif" font-weight="bold" font-size="13.00">Agent / subgraph state &#160;(private: each sees only its own keys)</text>
</g>
<g id="clust3" class="cluster">
<title>cluster_store</title>
<path fill="#fffbeb" stroke="#fcd34d" d="M20,-658C20,-658 1041,-658 1041,-658 1047,-658 1053,-664 1053,-670 1053,-670 1053,-759 1053,-759 1053,-765 1047,-771 1041,-771 1041,-771 20,-771 20,-771 14,-771 8,-765 8,-759 8,-759 8,-670 8,-670 8,-664 14,-658 20,-658"/>
<text text-anchor="start" x="16" y="-757.6" font-family="Helvetica,sans-Serif" font-weight="bold" font-size="13.00">Long&#45;term memory — Store (PostgreSQL + pgvector), one namespace per agent</text>
</g>
<!-- main -->
<g id="node1" class="node">
<title>main</title>
<polygon fill="white" stroke="transparent" points="231,-978 231,-1052 615,-1052 615,-978 231,-978"/>
<polygon fill="#374151" stroke="transparent" points="232,-1024 232,-1051 614,-1051 614,-1024 232,-1024"/>
<text text-anchor="start" x="238" y="-1034.8" font-family="Helvetica,sans-Serif" font-weight="bold" font-size="14.00" fill="white">MainState &#160;(shared, travels through the graph)</text>
<text text-anchor="start" x="238" y="-1010" font-family="Helvetica,sans-Serif" font-size="10.00" fill="#1f2937">• incident_id · severity · location</text>
<text text-anchor="start" x="238" y="-999" font-family="Helvetica,sans-Serif" font-size="10.00" fill="#1f2937">• required_resources · allocation</text>
<text text-anchor="start" x="238" y="-988" font-family="Helvetica,sans-Serif" font-size="10.00" fill="#1f2937">• approvals · audit_log</text>
<polygon fill="none" stroke="#374151" points="231,-978 231,-1052 615,-1052 615,-978 231,-978"/>
</g>
<!-- ckpt -->
<g id="node2" class="node">
<title>ckpt</title>
<polygon fill="white" stroke="transparent" points="691,-978 691,-1052 991,-1052 991,-978 691,-978"/>
<polygon fill="#6b5320" stroke="transparent" points="692,-1024 692,-1051 946,-1051 946,-1024 692,-1024"/>
<text text-anchor="start" x="698" y="-1034.8" font-family="Helvetica,sans-Serif" font-weight="bold" font-size="14.00" fill="white">Checkpointer &#160;(PostgresSaver)</text>
<text text-anchor="start" x="698" y="-1010" font-family="Helvetica,sans-Serif" font-size="10.00" fill="#1f2937">• snapshot of state after every node</text>
<text text-anchor="start" x="698" y="-999" font-family="Helvetica,sans-Serif" font-size="10.00" fill="#1f2937">• pause for human approval, resume later</text>
<text text-anchor="start" x="698" y="-988" font-family="Helvetica,sans-Serif" font-size="10.00" fill="#1f2937">• crash recovery, replay, audit</text>
<polygon fill="none" stroke="#6b5320" points="691,-978 691,-1052 991,-1052 991,-978 691,-978"/>
</g>
<!-- main&#45;&gt;ckpt -->
<g id="edge2" class="edge">
<title>main&#45;&gt;ckpt</title>
<path fill="none" stroke="#475569" stroke-width="1.2" stroke-dasharray="5,2" d="M615.18,-1015C638.11,-1015 661.31,-1015 683.67,-1015"/>
<polygon fill="#475569" stroke="#475569" stroke-width="1.2" points="683.9,-1017.45 690.9,-1015 683.9,-1012.55 683.9,-1017.45"/>
<text text-anchor="middle" x="653" y="-1020.8" font-family="Helvetica,sans-Serif" font-size="9.00" fill="#334155"> every step</text>
</g>
<!-- st_res -->
<g id="node5" class="node">
<title>st_res</title>
<polygon fill="white" stroke="transparent" points="366,-825 366,-888 480,-888 480,-825 366,-825"/>
<polygon fill="#4c3d8f" stroke="transparent" points="367,-859.5 367,-886.5 479,-886.5 479,-859.5 367,-859.5"/>
<text text-anchor="start" x="373" y="-870.3" font-family="Helvetica,sans-Serif" font-weight="bold" font-size="14.00" fill="white">RescueState</text>
<text text-anchor="start" x="373" y="-845.5" font-family="Helvetica,sans-Serif" font-size="10.00" fill="#1f2937">• teams, equipment</text>
<text text-anchor="start" x="373" y="-834.5" font-family="Helvetica,sans-Serif" font-size="10.00" fill="#1f2937">• rescue_plan</text>
<polygon fill="none" stroke="#4c3d8f" points="366,-825 366,-888 480,-888 480,-825 366,-825"/>
</g>
<!-- main&#45;&gt;st_res -->
<g id="edge1" class="edge">
<title>main&#45;&gt;st_res</title>
<path fill="none" stroke="#475569" stroke-width="1.2" d="M423,-977.7C423,-963.84 423,-947.48 423,-931.37"/>
<polygon fill="#475569" stroke="#475569" stroke-width="1.2" points="425.45,-931 423,-924 420.55,-931 425.45,-931"/>
<text text-anchor="middle" x="497" y="-934.8" font-family="Helvetica,sans-Serif" font-size="9.00" fill="#334155"> only the keys each agent needs</text>
</g>
<!-- st_tri -->
<g id="node3" class="node">
<title>st_tri</title>
<polygon fill="white" stroke="transparent" points="50,-825 50,-888 162,-888 162,-825 50,-825"/>
<polygon fill="#1f4e79" stroke="transparent" points="51,-859.5 51,-886.5 161,-886.5 161,-859.5 51,-859.5"/>
<text text-anchor="start" x="57" y="-870.3" font-family="Helvetica,sans-Serif" font-weight="bold" font-size="14.00" fill="white">Triage node</text>
<text text-anchor="start" x="57" y="-845.5" font-family="Helvetica,sans-Serif" font-size="10.00" fill="#1f2937">• report, candidates</text>
<text text-anchor="start" x="57" y="-834.5" font-family="Helvetica,sans-Serif" font-size="10.00" fill="#1f2937">• trust evidence</text>
<polygon fill="none" stroke="#1f4e79" points="50,-825 50,-888 162,-888 162,-825 50,-825"/>
</g>
<!-- ns_tri -->
<g id="node9" class="node">
<title>ns_tri</title>
<polygon fill="white" stroke="transparent" points="22.5,-672 22.5,-735 151.5,-735 151.5,-672 22.5,-672"/>
<polygon fill="#6b5320" stroke="transparent" points="24,-706.5 24,-733.5 151,-733.5 151,-706.5 24,-706.5"/>
<text text-anchor="start" x="30" y="-717.3" font-family="Helvetica,sans-Serif" font-weight="bold" font-size="14.00" fill="white">(&quot;triage&quot;, city)</text>
<text text-anchor="start" x="30" y="-692.5" font-family="Helvetica,sans-Serif" font-size="10.00" fill="#1f2937">• incident history</text>
<text text-anchor="start" x="30" y="-681.5" font-family="Helvetica,sans-Serif" font-size="10.00" fill="#1f2937">• report patterns</text>
<polygon fill="none" stroke="#6b5320" points="22.5,-672 22.5,-735 151.5,-735 151.5,-672 22.5,-672"/>
</g>
<!-- st_tri&#45;&gt;ns_tri -->
<g id="edge3" class="edge">
<title>st_tri&#45;&gt;ns_tri</title>
<path fill="none" stroke="#6b5320" stroke-width="1.6" d="M101.28,-817.95C98.36,-794.77 94.63,-765.15 91.72,-741.98"/>
<polygon fill="#6b5320" stroke="#6b5320" stroke-width="1.6" points="98.85,-818.3 102.16,-824.94 103.71,-817.69 98.85,-818.3"/>
<polygon fill="#6b5320" stroke="#6b5320" stroke-width="1.6" points="94.14,-741.65 90.84,-735.01 89.28,-742.26 94.14,-741.65"/>
<text text-anchor="middle" x="109" y="-781.8" font-family="Helvetica,sans-Serif" font-size="9.00" fill="#334155"> R/W</text>
</g>
<!-- st_med -->
<g id="node4" class="node">
<title>st_med</title>
<polygon fill="white" stroke="transparent" points="187,-825 187,-888 341,-888 341,-825 187,-825"/>
<polygon fill="#4c3d8f" stroke="transparent" points="188,-859.5 188,-886.5 340,-886.5 340,-859.5 188,-859.5"/>
<text text-anchor="start" x="194" y="-870.3" font-family="Helvetica,sans-Serif" font-weight="bold" font-size="14.00" fill="white">MedicalState</text>
<text text-anchor="start" x="194" y="-845.5" font-family="Helvetica,sans-Serif" font-size="10.00" fill="#1f2937">• patients, hospitals</text>
<text text-anchor="start" x="194" y="-834.5" font-family="Helvetica,sans-Serif" font-size="10.00" fill="#1f2937">• ambulances, medical_plan</text>
<polygon fill="none" stroke="#4c3d8f" points="187,-825 187,-888 341,-888 341,-825 187,-825"/>
</g>
<!-- ns_med -->
<g id="node10" class="node">
<title>ns_med</title>
<polygon fill="white" stroke="transparent" points="177,-672 177,-735 319,-735 319,-672 177,-672"/>
<polygon fill="#6b5320" stroke="transparent" points="178,-706.5 178,-733.5 318,-733.5 318,-706.5 178,-706.5"/>
<text text-anchor="start" x="184" y="-717.3" font-family="Helvetica,sans-Serif" font-weight="bold" font-size="14.00" fill="white">(&quot;medical&quot;, city)</text>
<text text-anchor="start" x="184" y="-692.5" font-family="Helvetica,sans-Serif" font-size="10.00" fill="#1f2937">• hospital history</text>
<text text-anchor="start" x="184" y="-681.5" font-family="Helvetica,sans-Serif" font-size="10.00" fill="#1f2937">• medical protocols</text>
<polygon fill="none" stroke="#6b5320" points="177,-672 177,-735 319,-735 319,-672 177,-672"/>
</g>
<!-- st_med&#45;&gt;ns_med -->
<g id="edge4" class="edge">
<title>st_med&#45;&gt;ns_med</title>
<path fill="none" stroke="#6b5320" stroke-width="1.6" d="M260.02,-817.95C257.57,-794.77 254.43,-765.15 251.97,-741.98"/>
<polygon fill="#6b5320" stroke="#6b5320" stroke-width="1.6" points="257.59,-818.24 260.76,-824.94 262.46,-817.72 257.59,-818.24"/>
<polygon fill="#6b5320" stroke="#6b5320" stroke-width="1.6" points="254.41,-741.71 251.23,-735.01 249.53,-742.23 254.41,-741.71"/>
<text text-anchor="middle" x="268" y="-781.8" font-family="Helvetica,sans-Serif" font-size="9.00" fill="#334155"> R/W</text>
</g>
<!-- ns_res -->
<g id="node11" class="node">
<title>ns_res</title>
<polygon fill="white" stroke="transparent" points="344,-672 344,-735 478,-735 478,-672 344,-672"/>
<polygon fill="#6b5320" stroke="transparent" points="345,-706.5 345,-733.5 477,-733.5 477,-706.5 345,-706.5"/>
<text text-anchor="start" x="351" y="-717.3" font-family="Helvetica,sans-Serif" font-weight="bold" font-size="14.00" fill="white">(&quot;rescue&quot;, city)</text>
<text text-anchor="start" x="351" y="-692.5" font-family="Helvetica,sans-Serif" font-size="10.00" fill="#1f2937">• past rescues</text>
<text text-anchor="start" x="351" y="-681.5" font-family="Helvetica,sans-Serif" font-size="10.00" fill="#1f2937">• equipment use</text>
<polygon fill="none" stroke="#6b5320" points="344,-672 344,-735 478,-735 478,-672 344,-672"/>
</g>
<!-- st_res&#45;&gt;ns_res -->
<g id="edge5" class="edge">
<title>st_res&#45;&gt;ns_res</title>
<path fill="none" stroke="#6b5320" stroke-width="1.6" d="M420.02,-817.95C418.18,-794.87 415.84,-765.4 414,-742.28"/>
<polygon fill="#6b5320" stroke="#6b5320" stroke-width="1.6" points="417.57,-818.16 420.57,-824.94 422.46,-817.77 417.57,-818.16"/>
<polygon fill="#6b5320" stroke="#6b5320" stroke-width="1.6" points="416.42,-741.8 413.42,-735.01 411.54,-742.18 416.42,-741.8"/>
<text text-anchor="middle" x="428" y="-781.8" font-family="Helvetica,sans-Serif" font-size="9.00" fill="#334155"> R/W</text>
</g>
<!-- st_log -->
<g id="node6" class="node">
<title>st_log</title>
<polygon fill="white" stroke="transparent" points="505,-825 505,-888 631,-888 631,-825 505,-825"/>
<polygon fill="#4c3d8f" stroke="transparent" points="506,-859.5 506,-886.5 630,-886.5 630,-859.5 506,-859.5"/>
<text text-anchor="start" x="512" y="-870.3" font-family="Helvetica,sans-Serif" font-weight="bold" font-size="14.00" fill="white">LogisticsState</text>
<text text-anchor="start" x="512" y="-845.5" font-family="Helvetica,sans-Serif" font-size="10.00" fill="#1f2937">• vehicles, shelters</text>
<text text-anchor="start" x="512" y="-834.5" font-family="Helvetica,sans-Serif" font-size="10.00" fill="#1f2937">• routes, supply_plan</text>
<polygon fill="none" stroke="#4c3d8f" points="505,-825 505,-888 631,-888 631,-825 505,-825"/>
</g>
<!-- ns_log -->
<g id="node12" class="node">
<title>ns_log</title>
<polygon fill="white" stroke="transparent" points="503,-672 503,-735 649,-735 649,-672 503,-672"/>
<polygon fill="#6b5320" stroke="transparent" points="504,-706.5 504,-733.5 648,-733.5 648,-706.5 504,-706.5"/>
<text text-anchor="start" x="510" y="-717.3" font-family="Helvetica,sans-Serif" font-weight="bold" font-size="14.00" fill="white">(&quot;logistics&quot;, city)</text>
<text text-anchor="start" x="510" y="-692.5" font-family="Helvetica,sans-Serif" font-size="10.00" fill="#1f2937">• route history</text>
<text text-anchor="start" x="510" y="-681.5" font-family="Helvetica,sans-Serif" font-size="10.00" fill="#1f2937">• supply history</text>
<polygon fill="none" stroke="#6b5320" points="503,-672 503,-735 649,-735 649,-672 503,-672"/>
</g>
<!-- st_log&#45;&gt;ns_log -->
<g id="edge6" class="edge">
<title>st_log&#45;&gt;ns_log</title>
<path fill="none" stroke="#6b5320" stroke-width="1.6" d="M569.99,-817.95C571.21,-794.87 572.77,-765.4 574,-742.28"/>
<polygon fill="#6b5320" stroke="#6b5320" stroke-width="1.6" points="567.54,-817.82 569.62,-824.94 572.44,-818.08 567.54,-817.82"/>
<polygon fill="#6b5320" stroke="#6b5320" stroke-width="1.6" points="576.46,-742.13 574.38,-735.01 571.57,-741.87 576.46,-742.13"/>
<text text-anchor="middle" x="583" y="-781.8" font-family="Helvetica,sans-Serif" font-size="9.00" fill="#334155"> R/W</text>
</g>
<!-- st_cmd -->
<g id="node7" class="node">
<title>st_cmd</title>
<polygon fill="white" stroke="transparent" points="656,-825 656,-888 808,-888 808,-825 656,-825"/>
<polygon fill="#4c3d8f" stroke="transparent" points="657,-859.5 657,-886.5 807,-886.5 807,-859.5 657,-859.5"/>
<text text-anchor="start" x="663" y="-870.3" font-family="Helvetica,sans-Serif" font-weight="bold" font-size="14.00" fill="white">CommanderState</text>
<text text-anchor="start" x="663" y="-845.5" font-family="Helvetica,sans-Serif" font-size="10.00" fill="#1f2937">• scratchpad, tool results</text>
<text text-anchor="start" x="663" y="-834.5" font-family="Helvetica,sans-Serif" font-size="10.00" fill="#1f2937">• proposal</text>
<polygon fill="none" stroke="#4c3d8f" points="656,-825 656,-888 808,-888 808,-825 656,-825"/>
</g>
<!-- ns_cmd -->
<g id="node13" class="node">
<title>ns_cmd</title>
<polygon fill="white" stroke="transparent" points="674,-672 674,-735 848,-735 848,-672 674,-672"/>
<polygon fill="#6b5320" stroke="transparent" points="675,-706.5 675,-733.5 847,-733.5 847,-706.5 675,-706.5"/>
<text text-anchor="start" x="681" y="-717.3" font-family="Helvetica,sans-Serif" font-weight="bold" font-size="14.00" fill="white">(&quot;commander&quot;, city)</text>
<text text-anchor="start" x="681" y="-692.5" font-family="Helvetica,sans-Serif" font-size="10.00" fill="#1f2937">• episodes</text>
<text text-anchor="start" x="681" y="-681.5" font-family="Helvetica,sans-Serif" font-size="10.00" fill="#1f2937">• lessons</text>
<polygon fill="none" stroke="#6b5320" points="674,-672 674,-735 848,-735 848,-672 674,-672"/>
</g>
<!-- st_cmd&#45;&gt;ns_cmd -->
<g id="edge7" class="edge">
<title>st_cmd&#45;&gt;ns_cmd</title>
<path fill="none" stroke="#6b5320" stroke-width="1.6" d="M739.21,-817.95C743.66,-794.77 749.35,-765.15 753.8,-741.98"/>
<polygon fill="#6b5320" stroke="#6b5320" stroke-width="1.6" points="736.78,-817.61 737.87,-824.94 741.59,-818.53 736.78,-817.61"/>
<polygon fill="#6b5320" stroke="#6b5320" stroke-width="1.6" points="756.23,-742.35 755.14,-735.01 751.41,-741.42 756.23,-742.35"/>
<text text-anchor="middle" x="757" y="-781.8" font-family="Helvetica,sans-Serif" font-size="9.00" fill="#334155"> R/W</text>
</g>
<!-- st_cop -->
<g id="node8" class="node">
<title>st_cop</title>
<polygon fill="white" stroke="transparent" points="833,-825 833,-888 959,-888 959,-825 833,-825"/>
<polygon fill="#4c3d8f" stroke="transparent" points="834,-859.5 834,-886.5 958,-886.5 958,-859.5 834,-859.5"/>
<text text-anchor="start" x="840" y="-870.3" font-family="Helvetica,sans-Serif" font-weight="bold" font-size="14.00" fill="white">CopilotState</text>
<text text-anchor="start" x="840" y="-845.5" font-family="Helvetica,sans-Serif" font-size="10.00" fill="#1f2937">• question, tool results</text>
<text text-anchor="start" x="840" y="-834.5" font-family="Helvetica,sans-Serif" font-size="10.00" fill="#1f2937">• answer</text>
<polygon fill="none" stroke="#4c3d8f" points="833,-825 833,-888 959,-888 959,-825 833,-825"/>
</g>
<!-- ns_cop -->
<g id="node14" class="node">
<title>ns_cop</title>
<polygon fill="white" stroke="transparent" points="873.5,-672 873.5,-735 1038.5,-735 1038.5,-672 873.5,-672"/>
<polygon fill="#6b5320" stroke="transparent" points="875,-706.5 875,-733.5 1038,-733.5 1038,-706.5 875,-706.5"/>
<text text-anchor="start" x="881" y="-717.3" font-family="Helvetica,sans-Serif" font-weight="bold" font-size="14.00" fill="white">(&quot;copilot&quot;, session)</text>
<text text-anchor="start" x="881" y="-692.5" font-family="Helvetica,sans-Serif" font-size="10.00" fill="#1f2937">• conversation turns</text>
<text text-anchor="start" x="881" y="-681.5" font-family="Helvetica,sans-Serif" font-size="10.00" fill="#1f2937">• facts</text>
<polygon fill="none" stroke="#6b5320" points="873.5,-672 873.5,-735 1038.5,-735 1038.5,-672 873.5,-672"/>
</g>
<!-- st_cop&#45;&gt;ns_cop -->
<g id="edge8" class="edge">
<title>st_cop&#45;&gt;ns_cop</title>
<path fill="none" stroke="#6b5320" stroke-width="1.6" d="M910.79,-818.28C920.05,-794.96 931.95,-765.02 941.21,-741.71"/>
<polygon fill="#6b5320" stroke="#6b5320" stroke-width="1.6" points="908.45,-817.53 908.14,-824.94 913,-819.34 908.45,-817.53"/>
<polygon fill="#6b5320" stroke="#6b5320" stroke-width="1.6" points="943.57,-742.42 943.88,-735.01 939.01,-740.61 943.57,-742.42"/>
<text text-anchor="middle" x="937" y="-781.8" font-family="Helvetica,sans-Serif" font-size="9.00" fill="#334155"> R/W</text>
</g>
<!-- ns_orders -->
<g id="node15" class="node">
<title>ns_orders</title>
<polygon fill="white" stroke="transparent" points="36,-538 36,-590 456,-590 456,-538 36,-538"/>
<polygon fill="#6b5320" stroke="transparent" points="37,-562 37,-589 413,-589 413,-562 37,-562"/>
<text text-anchor="start" x="43" y="-572.8" font-family="Helvetica,sans-Serif" font-weight="bold" font-size="14.00" fill="white">(&quot;orders&quot;, city) &#160;— shared, read&#45;only to agents</text>
<text text-anchor="start" x="43" y="-548" font-family="Helvetica,sans-Serif" font-size="10.00" fill="#1f2937">• standing orders written by officers only</text>
<polygon fill="none" stroke="#6b5320" points="36,-538 36,-590 456,-590 456,-538 36,-538"/>
</g>
<!-- ns_med&#45;&gt;ns_orders -->
<g id="edge9" class="edge">
<title>ns_med&#45;&gt;ns_orders</title>
<path fill="none" stroke="#6b5320" stroke-width="1.2" stroke-dasharray="5,2" d="M247.25,-650.8C246.95,-630.14 246.62,-607.29 246.37,-590.36"/>
<polygon fill="#6b5320" stroke="#6b5320" stroke-width="1.2" points="244.8,-651.04 247.35,-658 249.7,-650.97 244.8,-651.04"/>
<text text-anchor="middle" x="300" y="-628.8" font-family="Helvetica,sans-Serif" font-size="9.00" fill="#334155"> every agent: read only</text>
</g>
<!-- ns_pol -->
<g id="node16" class="node">
<title>ns_pol</title>
<polygon fill="white" stroke="transparent" points="481,-538 481,-590 673,-590 673,-538 481,-538"/>
<polygon fill="#7a2e2e" stroke="transparent" points="482,-562 482,-589 672,-589 672,-562 482,-562"/>
<text text-anchor="start" x="488" y="-572.8" font-family="Helvetica,sans-Serif" font-weight="bold" font-size="14.00" fill="white">(&quot;police&quot;, confidential)</text>
<text text-anchor="start" x="488" y="-548" font-family="Helvetica,sans-Serif" font-size="10.00" fill="#1f2937">• restricted: police agents only</text>
<polygon fill="none" stroke="#7a2e2e" points="481,-538 481,-590 673,-590 673,-538 481,-538"/>
</g>
<!-- ns_log&#45;&gt;ns_pol -->
<g id="edge10" class="edge">
<title>ns_log&#45;&gt;ns_pol</title>
<path fill="none" stroke="#b42318" stroke-width="1.6" stroke-dasharray="5,2" d="M576.32,-658C576.48,-637 576.65,-612.53 576.79,-593.96"/>
<polygon fill="#b42318" stroke="#b42318" stroke-width="1.6" points="573.31,-591.04 580.31,-591.09 580.3,-592.49 573.3,-592.44 573.31,-591.04"/>
<polyline fill="none" stroke="#b42318" stroke-width="1.6" points="576.82,-590.36 576.79,-593.86 "/>
<text text-anchor="middle" x="671" y="-628.8" font-family="Helvetica,sans-Serif" font-size="9.00" fill="#b42318"> medical, rescue, logistics, copilot: denied</text>
</g>
<!-- guard -->
<g id="node17" class="node">
<title>guard</title>
<polygon fill="white" stroke="transparent" points="16,-391 16,-465 476,-465 476,-391 16,-391"/>
<polygon fill="#7a2e2e" stroke="transparent" points="17,-437 17,-464 461,-464 461,-437 17,-437"/>
<text text-anchor="start" x="23" y="-447.8" font-family="Helvetica,sans-Serif" font-weight="bold" font-size="14.00" fill="white">Memory access policy &#160;(enforced on every read / write)</text>
<text text-anchor="start" x="23" y="-423" font-family="Helvetica,sans-Serif" font-size="10.00" fill="#1f2937">• MEMORY_ACCESS: agent → allowed namespaces</text>
<text text-anchor="start" x="23" y="-412" font-family="Helvetica,sans-Serif" font-size="10.00" fill="#1f2937">• metadata filter (namespace, agency, ward) before vector similarity</text>
<text text-anchor="start" x="23" y="-401" font-family="Helvetica,sans-Serif" font-size="10.00" fill="#1f2937">• content screened before it is stored · officers alone write orders</text>
<polygon fill="none" stroke="#7a2e2e" points="16,-391 16,-465 476,-465 476,-391 16,-391"/>
</g>
<!-- ns_orders&#45;&gt;guard -->
<!-- ledger -->
<g id="node18" class="node">
<title>ledger</title>
<polygon fill="white" stroke="transparent" points="83,-246 83,-309 409,-309 409,-246 83,-246"/>
<polygon fill="#374151" stroke="transparent" points="84,-280.5 84,-307.5 408,-307.5 408,-280.5 84,-280.5"/>
<text text-anchor="start" x="90" y="-291.3" font-family="Helvetica,sans-Serif" font-weight="bold" font-size="14.00" fill="white">Memory ledger → console Memory page</text>
<text text-anchor="start" x="90" y="-266.5" font-family="Helvetica,sans-Serif" font-size="10.00" fill="#1f2937">• which agent read or wrote which row</text>
<text text-anchor="start" x="90" y="-255.5" font-family="Helvetica,sans-Serif" font-size="10.00" fill="#1f2937">• in which incident thread, and why</text>
<polygon fill="none" stroke="#374151" points="83,-246 83,-309 409,-309 409,-246 83,-246"/>
</g>
<!-- guard&#45;&gt;ledger -->
<g id="edge12" class="edge">
<title>guard&#45;&gt;ledger</title>
<path fill="none" stroke="#475569" stroke-width="1.2" stroke-dasharray="5,2" d="M246,-390.67C246,-368.2 246,-339.4 246,-316.61"/>
<polygon fill="#475569" stroke="#475569" stroke-width="1.2" points="248.45,-316.43 246,-309.43 243.55,-316.43 248.45,-316.43"/>
<text text-anchor="middle" x="257" y="-347.8" font-family="Helvetica,sans-Serif" font-size="9.00" fill="#334155"> logs</text>
</g>
<!-- legend -->
<g id="node19" class="node">
<title>legend</title>
<text text-anchor="start" x="175" y="-155.3" font-family="Helvetica,sans-Serif" font-weight="bold" font-size="14.00">Legend</text>
<polygon fill="#374151" stroke="transparent" points="172,-123.5 172,-144.5 186,-144.5 186,-123.5 172,-123.5"/>
<text text-anchor="start" x="176.5" y="-130.3" font-family="Helvetica,sans-Serif" font-size="14.00"> </text>
<text text-anchor="start" x="192" y="-131.5" font-family="Helvetica,sans-Serif" font-size="10.00">graph state / runtime</text>
<polygon fill="#4c3d8f" stroke="transparent" points="172,-99.5 172,-120.5 186,-120.5 186,-99.5 172,-99.5"/>
<text text-anchor="start" x="176.5" y="-106.3" font-family="Helvetica,sans-Serif" font-size="14.00"> </text>
<text text-anchor="start" x="192" y="-107.5" font-family="Helvetica,sans-Serif" font-size="10.00">LLM agent state</text>
<polygon fill="#1f4e79" stroke="transparent" points="172,-75.5 172,-96.5 186,-96.5 186,-75.5 172,-75.5"/>
<text text-anchor="start" x="176.5" y="-82.3" font-family="Helvetica,sans-Serif" font-size="14.00"> </text>
<text text-anchor="start" x="192" y="-83.5" font-family="Helvetica,sans-Serif" font-size="10.00">deterministic node state</text>
<polygon fill="#6b5320" stroke="transparent" points="172,-51.5 172,-72.5 186,-72.5 186,-51.5 172,-51.5"/>
<text text-anchor="start" x="176.5" y="-58.3" font-family="Helvetica,sans-Serif" font-size="14.00"> </text>
<text text-anchor="start" x="192" y="-59.5" font-family="Helvetica,sans-Serif" font-size="10.00">memory namespace</text>
<polygon fill="#7a2e2e" stroke="transparent" points="172,-27.5 172,-48.5 186,-48.5 186,-27.5 172,-27.5"/>
<text text-anchor="start" x="176.5" y="-34.3" font-family="Helvetica,sans-Serif" font-size="14.00"> </text>
<text text-anchor="start" x="192" y="-35.5" font-family="Helvetica,sans-Serif" font-size="10.00">access control / restricted</text>
<polygon fill="#b42318" stroke="transparent" points="172,-3.5 172,-24.5 186,-24.5 186,-3.5 172,-3.5"/>
<text text-anchor="start" x="176.5" y="-10.3" font-family="Helvetica,sans-Serif" font-size="14.00"> </text>
<text text-anchor="start" x="192" y="-11.5" font-family="Helvetica,sans-Serif" font-size="10.00">red: denied</text>
<polygon fill="none" stroke="#cbd5e1" points="167.5,0 167.5,-173 324.5,-173 324.5,0 167.5,0"/>
</g>
<!-- ledger&#45;&gt;legend -->
</g>
</svg>
