<?xml version="1.0" encoding="UTF-8" standalone="no"?>
<!DOCTYPE svg PUBLIC "-//W3C//DTD SVG 1.1//EN"
 "http://www.w3.org/Graphics/SVG/1.1/DTD/svg11.dtd">
<!-- Generated by graphviz version 2.43.0 (0)
 -->
<!-- Title: G Pages: 1 -->
<svg width="2103pt" height="995pt"
 viewBox="0.00 0.00 2102.60 994.60" xmlns="http://www.w3.org/2000/svg" xmlns:xlink="http://www.w3.org/1999/xlink">
<g id="graph0" class="graph" transform="scale(1 1) rotate(0) translate(28.8 965.8)">
<title>G</title>
<polygon fill="white" stroke="transparent" points="-28.8,28.8 -28.8,-965.8 2073.8,-965.8 2073.8,28.8 -28.8,28.8"/>
<text text-anchor="start" x="8" y="-918" font-family="Helvetica,sans-Serif" font-weight="bold" font-size="20.00">Indradhanu — Connected System (field ↔ core)</text>
<g id="clust1" class="cluster">
<title>cluster_field</title>
<path fill="#ffffff" stroke="#16a34a" d="M20,-575C20,-575 1869,-575 1869,-575 1875,-575 1881,-581 1881,-587 1881,-587 1881,-887 1881,-887 1881,-893 1875,-899 1869,-899 1869,-899 20,-899 20,-899 14,-899 8,-893 8,-887 8,-887 8,-587 8,-587 8,-581 14,-575 20,-575"/>
<text text-anchor="start" x="16" y="-885.6" font-family="Helvetica,sans-Serif" font-weight="bold" font-size="13.00">FIELD — works with no internet</text>
</g>
<g id="clust2" class="cluster">
<title>cluster_cam</title>
<path fill="#f0fdf4" stroke="#86efac" d="M34,-594.5C34,-594.5 885,-594.5 885,-594.5 891,-594.5 897,-600.5 897,-606.5 897,-606.5 897,-851 897,-851 897,-857 891,-863 885,-863 885,-863 34,-863 34,-863 28,-863 22,-857 22,-851 22,-851 22,-606.5 22,-606.5 22,-600.5 28,-594.5 34,-594.5"/>
<text text-anchor="start" x="30" y="-849.6" font-family="Helvetica,sans-Serif" font-weight="bold" font-size="13.00">Camera sentinel (laptop / Jetson with GPU)</text>
</g>
<g id="clust4" class="cluster">
<title>cluster_mesh</title>
<path fill="#f0fdf4" stroke="#86efac" d="M923,-589C923,-589 1855,-589 1855,-589 1861,-589 1867,-595 1867,-601 1867,-601 1867,-701 1867,-701 1867,-707 1861,-713 1855,-713 1855,-713 923,-713 923,-713 917,-713 911,-707 911,-701 911,-701 911,-601 911,-601 911,-595 917,-589 923,-589"/>
<text text-anchor="start" x="919" y="-699.6" font-family="Helvetica,sans-Serif" font-weight="bold" font-size="13.00">bitchat mesh — Bluetooth LE + Wi&#45;Fi Aware, signed, encrypted, 7 hops</text>
</g>
<g id="clust6" class="cluster">
<title>cluster_core</title>
<path fill="#eff6ff" stroke="#2563eb" d="M1147,-274C1147,-274 1968,-274 1968,-274 1974,-274 1980,-280 1980,-286 1980,-286 1980,-527 1980,-527 1980,-533 1974,-539 1968,-539 1968,-539 1147,-539 1147,-539 1141,-539 1135,-533 1135,-527 1135,-527 1135,-286 1135,-286 1135,-280 1141,-274 1147,-274"/>
<text text-anchor="start" x="1143" y="-525.6" font-family="Helvetica,sans-Serif" font-weight="bold" font-size="13.00">CORE — cloud today (Render · Supabase · Vercel) &#160;· &#160;on&#45;prem state data centre in production</text>
</g>
<!-- c_det -->
<g id="node1" class="node">
<title>c_det</title>
<polygon fill="white" stroke="transparent" points="36,-764 36,-827 198,-827 198,-764 36,-764"/>
<polygon fill="#1d6b47" stroke="transparent" points="37,-798.5 37,-825.5 197,-825.5 197,-798.5 37,-798.5"/>
<text text-anchor="start" x="43" y="-809.3" font-family="Helvetica,sans-Serif" font-weight="bold" font-size="14.00" fill="white">Detection</text>
<text text-anchor="start" x="43" y="-784.5" font-family="Helvetica,sans-Serif" font-size="10.00" fill="#1f2937">• YOLOv8n + ByteTrack</text>
<text text-anchor="start" x="43" y="-773.5" font-family="Helvetica,sans-Serif" font-size="10.00" fill="#1f2937">• fire, smoke, fall, fight, crowd</text>
<polygon fill="none" stroke="#1d6b47" points="36,-764 36,-827 198,-827 198,-764 36,-764"/>
</g>
<!-- c_gate -->
<g id="node2" class="node">
<title>c_gate</title>
<polygon fill="white" stroke="transparent" points="261.5,-764 261.5,-827 420.5,-827 420.5,-764 261.5,-764"/>
<polygon fill="#1d6b47" stroke="transparent" points="263,-798.5 263,-825.5 420,-825.5 420,-798.5 263,-798.5"/>
<text text-anchor="start" x="269" y="-809.3" font-family="Helvetica,sans-Serif" font-weight="bold" font-size="14.00" fill="white">Escalation gate</text>
<text text-anchor="start" x="269" y="-784.5" font-family="Helvetica,sans-Serif" font-size="10.00" fill="#1f2937">• confidence × hazard weight</text>
<text text-anchor="start" x="269" y="-773.5" font-family="Helvetica,sans-Serif" font-size="10.00" fill="#1f2937">• cooldown per hazard</text>
<polygon fill="none" stroke="#1d6b47" points="261.5,-764 261.5,-827 420.5,-827 420.5,-764 261.5,-764"/>
</g>
<!-- c_det&#45;&gt;c_gate -->
<g id="edge1" class="edge">
<title>c_det&#45;&gt;c_gate</title>
<path fill="none" stroke="#475569" stroke-width="1.2" d="M198.38,-795.5C216.9,-795.5 235.43,-795.5 253.95,-795.5"/>
<polygon fill="#475569" stroke="#475569" stroke-width="1.2" points="254.33,-797.95 261.33,-795.5 254.33,-793.05 254.33,-797.95"/>
</g>
<!-- c_vlm -->
<g id="node3" class="node">
<title>c_vlm</title>
<polygon fill="white" stroke="transparent" points="484,-764 484,-827 640,-827 640,-764 484,-764"/>
<polygon fill="#1d6b47" stroke="transparent" points="485,-798.5 485,-825.5 639,-825.5 639,-798.5 485,-798.5"/>
<text text-anchor="start" x="491" y="-809.3" font-family="Helvetica,sans-Serif" font-weight="bold" font-size="14.00" fill="white">Scene VLM (local)</text>
<text text-anchor="start" x="491" y="-784.5" font-family="Helvetica,sans-Serif" font-size="10.00" fill="#1f2937">• Qwen2.5&#45;VL&#45;3B on the GPU</text>
<text text-anchor="start" x="491" y="-773.5" font-family="Helvetica,sans-Serif" font-size="10.00" fill="#1f2937">• writes the scene brief</text>
<polygon fill="none" stroke="#1d6b47" points="484,-764 484,-827 640,-827 640,-764 484,-764"/>
</g>
<!-- c_gate&#45;&gt;c_vlm -->
<g id="edge2" class="edge">
<title>c_gate&#45;&gt;c_vlm</title>
<path fill="none" stroke="#475569" stroke-width="1.2" d="M420.85,-795.5C439.43,-795.5 458.01,-795.5 476.59,-795.5"/>
<polygon fill="#475569" stroke="#475569" stroke-width="1.2" points="476.98,-797.95 483.98,-795.5 476.98,-793.05 476.98,-797.95"/>
</g>
<!-- c_log -->
<g id="node5" class="node">
<title>c_log</title>
<polygon fill="white" stroke="transparent" points="314,-608.5 314,-671.5 482,-671.5 482,-608.5 314,-608.5"/>
<polygon fill="#6b5320" stroke="transparent" points="315,-643 315,-670 481,-670 481,-643 315,-643"/>
<text text-anchor="start" x="321" y="-653.8" font-family="Helvetica,sans-Serif" font-weight="bold" font-size="14.00" fill="white">Forensic log</text>
<text text-anchor="start" x="321" y="-629" font-family="Helvetica,sans-Serif" font-size="10.00" fill="#1f2937">• every event, keyframes, clips</text>
<text text-anchor="start" x="321" y="-618" font-family="Helvetica,sans-Serif" font-size="10.00" fill="#1f2937">• SQLite on the device</text>
<polygon fill="none" stroke="#6b5320" points="314,-608.5 314,-671.5 482,-671.5 482,-608.5 314,-608.5"/>
</g>
<!-- c_gate&#45;&gt;c_log -->
<g id="edge4" class="edge">
<title>c_gate&#45;&gt;c_log</title>
<path fill="none" stroke="#475569" stroke-width="1.2" d="M352.4,-763.81C361.52,-739.23 374.36,-704.66 384.09,-678.45"/>
<polygon fill="#475569" stroke="#475569" stroke-width="1.2" points="386.48,-679.06 386.62,-671.64 381.89,-677.35 386.48,-679.06"/>
</g>
<!-- c_bridge -->
<g id="node4" class="node">
<title>c_bridge</title>
<polygon fill="white" stroke="transparent" points="703.5,-764 703.5,-827 882.5,-827 882.5,-764 703.5,-764"/>
<polygon fill="#1d6b47" stroke="transparent" points="705,-798.5 705,-825.5 882,-825.5 882,-798.5 705,-798.5"/>
<text text-anchor="start" x="711" y="-809.3" font-family="Helvetica,sans-Serif" font-weight="bold" font-size="14.00" fill="white">Indradhanu bridge</text>
<text text-anchor="start" x="711" y="-784.5" font-family="Helvetica,sans-Serif" font-size="10.00" fill="#1f2937">• online: HTTPS to the API</text>
<text text-anchor="start" x="711" y="-773.5" font-family="Helvetica,sans-Serif" font-size="10.00" fill="#1f2937">• offline: signed packet via phone</text>
<polygon fill="none" stroke="#1d6b47" points="703.5,-764 703.5,-827 882.5,-827 882.5,-764 703.5,-764"/>
</g>
<!-- c_vlm&#45;&gt;c_bridge -->
<g id="edge3" class="edge">
<title>c_vlm&#45;&gt;c_bridge</title>
<path fill="none" stroke="#475569" stroke-width="1.2" d="M640.05,-795.5C658.69,-795.5 677.32,-795.5 695.96,-795.5"/>
<polygon fill="#475569" stroke="#475569" stroke-width="1.2" points="696.38,-797.95 703.38,-795.5 696.38,-793.05 696.38,-797.95"/>
</g>
<!-- c_vlm&#45;&gt;c_log -->
<g id="edge5" class="edge">
<title>c_vlm&#45;&gt;c_log</title>
<path fill="none" stroke="#475569" stroke-width="1.2" d="M529.21,-763.81C502.28,-738.6 464.12,-702.88 435.89,-676.46"/>
<polygon fill="#475569" stroke="#475569" stroke-width="1.2" points="437.52,-674.64 430.74,-671.64 434.17,-678.21 437.52,-674.64"/>
</g>
<!-- p_gw -->
<g id="node8" class="node">
<title>p_gw</title>
<polygon fill="white" stroke="transparent" points="1701.5,-603 1701.5,-677 1852.5,-677 1852.5,-603 1701.5,-603"/>
<polygon fill="#1d6b47" stroke="transparent" points="1703,-649 1703,-676 1852,-676 1852,-649 1703,-649"/>
<text text-anchor="start" x="1709" y="-659.8" font-family="Helvetica,sans-Serif" font-weight="bold" font-size="14.00" fill="white">Gateway phone</text>
<text text-anchor="start" x="1709" y="-635" font-family="Helvetica,sans-Serif" font-size="10.00" fill="#1f2937">• store and forward</text>
<text text-anchor="start" x="1709" y="-624" font-family="Helvetica,sans-Serif" font-size="10.00" fill="#1f2937">• push when online</text>
<text text-anchor="start" x="1709" y="-613" font-family="Helvetica,sans-Serif" font-size="10.00" fill="#1f2937">• pull alerts, centres, routes</text>
<polygon fill="none" stroke="#1d6b47" points="1701.5,-603 1701.5,-677 1852.5,-677 1852.5,-603 1701.5,-603"/>
</g>
<!-- c_bridge&#45;&gt;p_gw -->
<g id="edge9" class="edge">
<title>c_bridge&#45;&gt;p_gw</title>
<path fill="none" stroke="#c2410c" stroke-width="1.6" d="M882.77,-785.05C1023.86,-770.36 1306.18,-741.58 1546,-721 1593.96,-716.88 1608.04,-727.3 1654,-713 1677.34,-705.74 1700.98,-693.36 1721.21,-680.89"/>
<polygon fill="#c2410c" stroke="#c2410c" stroke-width="1.6" points="1722.75,-682.82 1727.38,-677.03 1720.15,-678.67 1722.75,-682.82"/>
<text text-anchor="middle" x="1593" y="-723.8" font-family="Helvetica,sans-Serif" font-size="9.00" fill="#334155"> image + brief (LAN)</text>
</g>
<!-- api -->
<g id="node10" class="node">
<title>api</title>
<polygon fill="white" stroke="transparent" points="1431,-418 1431,-503 1691,-503 1691,-418 1431,-418"/>
<polygon fill="#1f4e79" stroke="transparent" points="1432,-474.5 1432,-501.5 1593,-501.5 1593,-474.5 1432,-474.5"/>
<text text-anchor="start" x="1438" y="-485.3" font-family="Helvetica,sans-Serif" font-weight="bold" font-size="14.00" fill="white">Indradhanu API</text>
<text text-anchor="start" x="1438" y="-460.5" font-family="Helvetica,sans-Serif" font-size="10.00" fill="#1f2937">• LangGraph agent graph</text>
<text text-anchor="start" x="1438" y="-449.5" font-family="Helvetica,sans-Serif" font-size="10.00" fill="#1f2937">• CP&#45;SAT optimisation</text>
<text text-anchor="start" x="1438" y="-438.5" font-family="Helvetica,sans-Serif" font-size="10.00" fill="#1f2937">• policy gate, human approval</text>
<text text-anchor="start" x="1438" y="-427.5" font-family="Helvetica,sans-Serif" font-size="10.00" fill="#1f2937">• mesh gateway endpoints</text>
<polygon fill="none" stroke="#1f4e79" points="1431,-418 1431,-503 1691,-503 1691,-418 1431,-418"/>
</g>
<!-- c_bridge&#45;&gt;api -->
<g id="edge12" class="edge">
<title>c_bridge&#45;&gt;api</title>
<path fill="none" stroke="#2563eb" stroke-width="2.2" d="M882.7,-794.57C1130.09,-793.84 1808.2,-785.21 1875,-713 1925.67,-658.23 1913.02,-586.93 1850,-547 1804.41,-518.11 1748.64,-498.62 1698.3,-485.65"/>
<polygon fill="#2563eb" stroke="#2563eb" stroke-width="2.2" points="1698.62,-483.2 1691.23,-483.86 1697.42,-487.95 1698.62,-483.2"/>
<text text-anchor="middle" x="1951" y="-637.8" font-family="Helvetica,sans-Serif" font-size="9.00" fill="#334155"> HTTPS when online</text>
</g>
<!-- p_cit -->
<g id="node6" class="node">
<title>p_cit</title>
<polygon fill="white" stroke="transparent" points="1265,-603 1265,-677 1421,-677 1421,-603 1265,-603"/>
<polygon fill="#1d6b47" stroke="transparent" points="1266,-649 1266,-676 1420,-676 1420,-649 1266,-649"/>
<text text-anchor="start" x="1272" y="-659.8" font-family="Helvetica,sans-Serif" font-weight="bold" font-size="14.00" fill="white">Citizen phone</text>
<text text-anchor="start" x="1272" y="-635" font-family="Helvetica,sans-Serif" font-size="10.00" fill="#1f2937">• SOS with GPS, reports</text>
<text text-anchor="start" x="1272" y="-624" font-family="Helvetica,sans-Serif" font-size="10.00" fill="#1f2937">• offline map, nearest centre</text>
<text text-anchor="start" x="1272" y="-613" font-family="Helvetica,sans-Serif" font-size="10.00" fill="#1f2937">• role&#45;sorted alerts</text>
<polygon fill="none" stroke="#1d6b47" points="1265,-603 1265,-677 1421,-677 1421,-603 1265,-603"/>
</g>
<!-- p_crew -->
<g id="node7" class="node">
<title>p_crew</title>
<polygon fill="white" stroke="transparent" points="1484.5,-603 1484.5,-677 1637.5,-677 1637.5,-603 1484.5,-603"/>
<polygon fill="#1d6b47" stroke="transparent" points="1486,-649 1486,-676 1637,-676 1637,-649 1486,-649"/>
<text text-anchor="start" x="1492" y="-659.8" font-family="Helvetica,sans-Serif" font-weight="bold" font-size="14.00" fill="white">Crew phone</text>
<text text-anchor="start" x="1492" y="-635" font-family="Helvetica,sans-Serif" font-size="10.00" fill="#1f2937">• receives dispatch + route</text>
<text text-anchor="start" x="1492" y="-624" font-family="Helvetica,sans-Serif" font-size="10.00" fill="#1f2937">• reports on site, done</text>
<text text-anchor="start" x="1492" y="-613" font-family="Helvetica,sans-Serif" font-size="10.00" fill="#1f2937">• road blocked, need backup</text>
<polygon fill="none" stroke="#1d6b47" points="1484.5,-603 1484.5,-677 1637.5,-677 1637.5,-603 1484.5,-603"/>
</g>
<!-- p_cit&#45;&gt;p_crew -->
<g id="edge6" class="edge">
<title>p_cit&#45;&gt;p_crew</title>
<path fill="none" stroke="#16a34a" stroke-width="1.6" stroke-dasharray="5,2" d="M1428.36,-640C1444.33,-640 1461,-640 1476.93,-640"/>
<polygon fill="#16a34a" stroke="#16a34a" stroke-width="1.6" points="1428.09,-637.55 1421.09,-640 1428.09,-642.45 1428.09,-637.55"/>
<polygon fill="#16a34a" stroke="#16a34a" stroke-width="1.6" points="1477.19,-642.45 1484.19,-640 1477.19,-637.55 1477.19,-642.45"/>
<text text-anchor="middle" x="1452.75" y="-645.8" font-family="Helvetica,sans-Serif" font-size="9.00" fill="#334155"> BLE</text>
</g>
<!-- pwa -->
<g id="node9" class="node">
<title>pwa</title>
<polygon fill="white" stroke="transparent" points="925,-603 925,-677 1159,-677 1159,-603 925,-603"/>
<polygon fill="#1d6b47" stroke="transparent" points="926,-649 926,-676 1158,-676 1158,-649 926,-649"/>
<text text-anchor="start" x="932" y="-659.8" font-family="Helvetica,sans-Serif" font-weight="bold" font-size="14.00" fill="white">Citizen &amp; Field Portal (PWA)</text>
<text text-anchor="start" x="932" y="-635" font-family="Helvetica,sans-Serif" font-size="10.00" fill="#1f2937">• opens offline (cached app)</text>
<text text-anchor="start" x="932" y="-624" font-family="Helvetica,sans-Serif" font-size="10.00" fill="#1f2937">• queues reports until online</text>
<text text-anchor="start" x="932" y="-613" font-family="Helvetica,sans-Serif" font-size="10.00" fill="#1f2937">• mesh mode via bitchat</text>
<polygon fill="none" stroke="#1d6b47" points="925,-603 925,-677 1159,-677 1159,-603 925,-603"/>
</g>
<!-- p_cit&#45;&gt;pwa -->
<g id="edge8" class="edge">
<title>p_cit&#45;&gt;pwa</title>
<path fill="none" stroke="#c2410c" stroke-width="1.2" d="M1257.49,-640C1229.13,-640 1196.97,-640 1166.31,-640"/>
<polygon fill="#c2410c" stroke="#c2410c" stroke-width="1.2" points="1257.61,-642.45 1264.61,-640 1257.61,-637.55 1257.61,-642.45"/>
<polygon fill="#c2410c" stroke="#c2410c" stroke-width="1.2" points="1166.24,-637.55 1159.24,-640 1166.24,-642.45 1166.24,-637.55"/>
<text text-anchor="middle" x="1212" y="-645.8" font-family="Helvetica,sans-Serif" font-size="9.00" fill="#334155"> loopback :8765</text>
</g>
<!-- p_crew&#45;&gt;p_gw -->
<g id="edge7" class="edge">
<title>p_crew&#45;&gt;p_gw</title>
<path fill="none" stroke="#16a34a" stroke-width="1.6" stroke-dasharray="5,2" d="M1645.07,-640C1661.12,-640 1677.9,-640 1693.91,-640"/>
<polygon fill="#16a34a" stroke="#16a34a" stroke-width="1.6" points="1644.76,-637.55 1637.76,-640 1644.76,-642.45 1644.76,-637.55"/>
<polygon fill="#16a34a" stroke="#16a34a" stroke-width="1.6" points="1694.21,-642.45 1701.21,-640 1694.21,-637.55 1694.21,-642.45"/>
<text text-anchor="middle" x="1669.5" y="-645.8" font-family="Helvetica,sans-Serif" font-size="9.00" fill="#334155"> BLE</text>
</g>
<!-- p_crew&#45;&gt;api -->
<!-- p_gw&#45;&gt;api -->
<g id="edge10" class="edge">
<title>p_gw&#45;&gt;api</title>
<path fill="none" stroke="#2563eb" stroke-width="2.2" d="M1727.57,-598.38C1694.66,-571.33 1651.35,-535.74 1617.14,-507.63"/>
<polygon fill="#2563eb" stroke="#2563eb" stroke-width="2.2" points="1726.07,-600.31 1733.03,-602.87 1729.18,-596.53 1726.07,-600.31"/>
<polygon fill="#2563eb" stroke="#2563eb" stroke-width="2.2" points="1618.69,-505.74 1611.73,-503.19 1615.58,-509.53 1618.69,-505.74"/>
<text text-anchor="start" x="1688" y="-559.8" font-family="Helvetica,sans-Serif" font-size="9.00" fill="#334155"> up: reports, briefs, status</text>
<text text-anchor="start" x="1688" y="-549.8" font-family="Helvetica,sans-Serif" font-size="9.00" fill="#334155"> down: alerts, dispatches, centres</text>
</g>
<!-- pwa&#45;&gt;api -->
<g id="edge11" class="edge">
<title>pwa&#45;&gt;api</title>
<path fill="none" stroke="#2563eb" stroke-width="2.2" d="M1147.34,-602.97C1229.78,-574.78 1344.79,-535.44 1432.62,-505.41"/>
<polygon fill="#2563eb" stroke="#2563eb" stroke-width="2.2" points="1433.6,-507.66 1439.43,-503.08 1432.01,-503.03 1433.6,-507.66"/>
<text text-anchor="middle" x="1346" y="-554.8" font-family="Helvetica,sans-Serif" font-size="9.00" fill="#334155"> HTTPS when online</text>
</g>
<!-- console -->
<g id="node11" class="node">
<title>console</title>
<polygon fill="white" stroke="transparent" points="1149,-288 1149,-351 1335,-351 1335,-288 1149,-288"/>
<polygon fill="#9a5b13" stroke="transparent" points="1150,-322.5 1150,-349.5 1334,-349.5 1334,-322.5 1150,-322.5"/>
<text text-anchor="start" x="1156" y="-333.3" font-family="Helvetica,sans-Serif" font-weight="bold" font-size="14.00" fill="white">Control&#45;room Console</text>
<text text-anchor="start" x="1156" y="-308.5" font-family="Helvetica,sans-Serif" font-size="10.00" fill="#1f2937">• map, approvals, Copilot</text>
<text text-anchor="start" x="1156" y="-297.5" font-family="Helvetica,sans-Serif" font-size="10.00" fill="#1f2937">• agent trace, replay</text>
<polygon fill="none" stroke="#9a5b13" points="1149,-288 1149,-351 1335,-351 1335,-288 1149,-288"/>
</g>
<!-- api&#45;&gt;console -->
<g id="edge13" class="edge">
<title>api&#45;&gt;console</title>
<path fill="none" stroke="#2563eb" stroke-width="2.2" d="M1459.02,-415.06C1413.58,-395.26 1360.94,-372.32 1318.88,-354"/>
<polygon fill="#2563eb" stroke="#2563eb" stroke-width="2.2" points="1458.33,-417.43 1465.72,-417.98 1460.28,-412.94 1458.33,-417.43"/>
<polygon fill="#2563eb" stroke="#2563eb" stroke-width="2.2" points="1319.62,-351.65 1312.23,-351.1 1317.66,-356.14 1319.62,-351.65"/>
</g>
<!-- db -->
<g id="node12" class="node">
<title>db</title>
<polygon fill="white" stroke="transparent" points="1367.5,-288 1367.5,-351 1556.5,-351 1556.5,-288 1367.5,-288"/>
<polygon fill="#6b5320" stroke="transparent" points="1369,-322.5 1369,-349.5 1556,-349.5 1556,-322.5 1369,-322.5"/>
<text text-anchor="start" x="1375" y="-333.3" font-family="Helvetica,sans-Serif" font-weight="bold" font-size="14.00" fill="white">PostgreSQL + PostGIS</text>
<text text-anchor="start" x="1375" y="-308.5" font-family="Helvetica,sans-Serif" font-size="10.00" fill="#1f2937">• events, incidents, plans</text>
<text text-anchor="start" x="1375" y="-297.5" font-family="Helvetica,sans-Serif" font-size="10.00" fill="#1f2937">• memory, mesh outbox</text>
<polygon fill="none" stroke="#6b5320" points="1367.5,-288 1367.5,-351 1556.5,-351 1556.5,-288 1367.5,-288"/>
</g>
<!-- api&#45;&gt;db -->
<g id="edge15" class="edge">
<title>api&#45;&gt;db</title>
<path fill="none" stroke="#475569" stroke-width="1.2" d="M1527.12,-411.92C1514.35,-394 1500.05,-373.92 1488.1,-357.15"/>
<polygon fill="#475569" stroke="#475569" stroke-width="1.2" points="1525.24,-413.52 1531.3,-417.8 1529.23,-410.67 1525.24,-413.52"/>
<polygon fill="#475569" stroke="#475569" stroke-width="1.2" points="1489.87,-355.41 1483.81,-351.13 1485.88,-358.25 1489.87,-355.41"/>
</g>
<!-- llm -->
<g id="node13" class="node">
<title>llm</title>
<polygon fill="white" stroke="transparent" points="1588.5,-288 1588.5,-351 1753.5,-351 1753.5,-288 1588.5,-288"/>
<polygon fill="#4c3d8f" stroke="transparent" points="1590,-322.5 1590,-349.5 1753,-349.5 1753,-322.5 1590,-322.5"/>
<text text-anchor="start" x="1596" y="-333.3" font-family="Helvetica,sans-Serif" font-weight="bold" font-size="14.00" fill="white">LLM</text>
<text text-anchor="start" x="1596" y="-308.5" font-family="Helvetica,sans-Serif" font-size="10.00" fill="#1f2937">• demo: Gemini → Bedrock API</text>
<text text-anchor="start" x="1596" y="-297.5" font-family="Helvetica,sans-Serif" font-size="10.00" fill="#1f2937">• production: on&#45;prem vLLM</text>
<polygon fill="none" stroke="#4c3d8f" points="1588.5,-288 1588.5,-351 1753.5,-351 1753.5,-288 1588.5,-288"/>
</g>
<!-- api&#45;&gt;llm -->
<g id="edge16" class="edge">
<title>api&#45;&gt;llm</title>
<path fill="none" stroke="#475569" stroke-width="1.2" d="M1594,-417.8C1609.37,-398.37 1627.49,-375.48 1642.28,-356.79"/>
<polygon fill="#475569" stroke="#475569" stroke-width="1.2" points="1644.34,-358.14 1646.76,-351.13 1640.5,-355.1 1644.34,-358.14"/>
</g>
<!-- ext -->
<g id="node14" class="node">
<title>ext</title>
<polygon fill="white" stroke="transparent" points="1786,-288 1786,-351 1966,-351 1966,-288 1786,-288"/>
<polygon fill="#5b6470" stroke="transparent" points="1787,-322.5 1787,-349.5 1965,-349.5 1965,-322.5 1787,-322.5"/>
<text text-anchor="start" x="1793" y="-333.3" font-family="Helvetica,sans-Serif" font-weight="bold" font-size="14.00" fill="white">Maps &amp; hazard feeds</text>
<text text-anchor="start" x="1793" y="-308.5" font-family="Helvetica,sans-Serif" font-size="10.00" fill="#1f2937">• routing: Mapbox / OSRM</text>
<text text-anchor="start" x="1793" y="-297.5" font-family="Helvetica,sans-Serif" font-size="10.00" fill="#1f2937">• weather, flood feeds</text>
<polygon fill="none" stroke="#5b6470" points="1786,-288 1786,-351 1966,-351 1966,-288 1786,-288"/>
</g>
<!-- api&#45;&gt;ext -->
<g id="edge17" class="edge">
<title>api&#45;&gt;ext</title>
<path fill="none" stroke="#475569" stroke-width="1.2" d="M1655.08,-417.98C1701.3,-397.59 1756.25,-373.34 1799.79,-354.13"/>
<polygon fill="#475569" stroke="#475569" stroke-width="1.2" points="1800.99,-356.28 1806.41,-351.21 1799.01,-351.79 1800.99,-356.28"/>
</g>
<!-- legend -->
<g id="node15" class="node">
<title>legend</title>
<text text-anchor="start" x="1714" y="-203.3" font-family="Helvetica,sans-Serif" font-weight="bold" font-size="14.00">Legend</text>
<polygon fill="#1d6b47" stroke="transparent" points="1711,-171.5 1711,-192.5 1725,-192.5 1725,-171.5 1711,-171.5"/>
<text text-anchor="start" x="1715.5" y="-178.3" font-family="Helvetica,sans-Serif" font-size="14.00"> </text>
<text text-anchor="start" x="1731" y="-179.5" font-family="Helvetica,sans-Serif" font-size="10.00">runs in the field, offline</text>
<polygon fill="#1f4e79" stroke="transparent" points="1711,-147.5 1711,-168.5 1725,-168.5 1725,-147.5 1711,-147.5"/>
<text text-anchor="start" x="1715.5" y="-154.3" font-family="Helvetica,sans-Serif" font-size="14.00"> </text>
<text text-anchor="start" x="1731" y="-155.5" font-family="Helvetica,sans-Serif" font-size="10.00">core service</text>
<polygon fill="#4c3d8f" stroke="transparent" points="1711,-123.5 1711,-144.5 1725,-144.5 1725,-123.5 1711,-123.5"/>
<text text-anchor="start" x="1715.5" y="-130.3" font-family="Helvetica,sans-Serif" font-size="14.00"> </text>
<text text-anchor="start" x="1731" y="-131.5" font-family="Helvetica,sans-Serif" font-size="10.00">LLM</text>
<polygon fill="#6b5320" stroke="transparent" points="1711,-99.5 1711,-120.5 1725,-120.5 1725,-99.5 1711,-99.5"/>
<text text-anchor="start" x="1715.5" y="-106.3" font-family="Helvetica,sans-Serif" font-size="14.00"> </text>
<text text-anchor="start" x="1731" y="-107.5" font-family="Helvetica,sans-Serif" font-size="10.00">storage</text>
<polygon fill="#9a5b13" stroke="transparent" points="1711,-75.5 1711,-96.5 1725,-96.5 1725,-75.5 1711,-75.5"/>
<text text-anchor="start" x="1715.5" y="-82.3" font-family="Helvetica,sans-Serif" font-size="14.00"> </text>
<text text-anchor="start" x="1731" y="-83.5" font-family="Helvetica,sans-Serif" font-size="10.00">people</text>
<polygon fill="#2563eb" stroke="transparent" points="1711,-51.5 1711,-72.5 1725,-72.5 1725,-51.5 1711,-51.5"/>
<text text-anchor="start" x="1715.5" y="-58.3" font-family="Helvetica,sans-Serif" font-size="14.00"> </text>
<text text-anchor="start" x="1731" y="-59.5" font-family="Helvetica,sans-Serif" font-size="10.00">blue: needs a link (internet today, state network in production)</text>
<polygon fill="#16a34a" stroke="transparent" points="1711,-27.5 1711,-48.5 1725,-48.5 1725,-27.5 1711,-27.5"/>
<text text-anchor="start" x="1715.5" y="-34.3" font-family="Helvetica,sans-Serif" font-size="14.00"> </text>
<text text-anchor="start" x="1731" y="-35.5" font-family="Helvetica,sans-Serif" font-size="10.00">green dashed: Bluetooth mesh</text>
<polygon fill="#c2410c" stroke="transparent" points="1711,-3.5 1711,-24.5 1725,-24.5 1725,-3.5 1711,-3.5"/>
<text text-anchor="start" x="1715.5" y="-10.3" font-family="Helvetica,sans-Serif" font-size="14.00"> </text>
<text text-anchor="start" x="1731" y="-11.5" font-family="Helvetica,sans-Serif" font-size="10.00">orange: local Wi&#45;Fi / same phone</text>
<polygon fill="none" stroke="#cbd5e1" points="1707,0 1707,-221 2045,-221 2045,0 1707,0"/>
</g>
<!-- ext&#45;&gt;legend -->
</g>
</svg>
