<?xml version="1.0" encoding="UTF-8" standalone="no"?>
<!DOCTYPE svg PUBLIC "-//W3C//DTD SVG 1.1//EN"
 "http://www.w3.org/Graphics/SVG/1.1/DTD/svg11.dtd">
<!-- Generated by graphviz version 2.43.0 (0)
 -->
<!-- Title: G Pages: 1 -->
<svg width="2276pt" height="1600pt"
 viewBox="0.00 0.00 2275.60 1599.60" xmlns="http://www.w3.org/2000/svg" xmlns:xlink="http://www.w3.org/1999/xlink">
<g id="graph0" class="graph" transform="scale(1 1) rotate(0) translate(28.8 1570.8)">
<title>G</title>
<polygon fill="white" stroke="transparent" points="-28.8,28.8 -28.8,-1570.8 2246.8,-1570.8 2246.8,28.8 -28.8,28.8"/>
<text text-anchor="start" x="8" y="-1523" font-family="Helvetica,sans-Serif" font-weight="bold" font-size="20.00">Indradhanu — Production End&#45;State (on&#45;prem, offline&#45;first)</text>
<g id="clust1" class="cluster">
<title>cluster_edge</title>
<path fill="#f0fdf4" stroke="#16a34a" d="M20,-1380C20,-1380 1123,-1380 1123,-1380 1129,-1380 1135,-1386 1135,-1392 1135,-1392 1135,-1492 1135,-1492 1135,-1498 1129,-1504 1123,-1504 1123,-1504 20,-1504 20,-1504 14,-1504 8,-1498 8,-1492 8,-1492 8,-1392 8,-1392 8,-1386 14,-1380 20,-1380"/>
<text text-anchor="start" x="16" y="-1490.6" font-family="Helvetica,sans-Serif" font-weight="bold" font-size="13.00">District edge — offline&#45;first (keeps working if the link drops)</text>
</g>
<g id="clust3" class="cluster">
<title>cluster_users</title>
<path fill="#fff7ed" stroke="#fdba74" d="M1155,-1239.5C1155,-1239.5 1321,-1239.5 1321,-1239.5 1327,-1239.5 1333,-1245.5 1333,-1251.5 1333,-1251.5 1333,-1481 1333,-1481 1333,-1487 1327,-1493 1321,-1493 1321,-1493 1155,-1493 1155,-1493 1149,-1493 1143,-1487 1143,-1481 1143,-1481 1143,-1251.5 1143,-1251.5 1143,-1245.5 1149,-1239.5 1155,-1239.5"/>
<text text-anchor="start" x="1151" y="-1479.6" font-family="Helvetica,sans-Serif" font-weight="bold" font-size="13.00">People</text>
</g>
<g id="clust4" class="cluster">
<title>cluster_inet</title>
<path fill="#ffffff" stroke="#cbd5e1" stroke-dasharray="5,2" d="M1353,-1234C1353,-1234 1535,-1234 1535,-1234 1541,-1234 1547,-1240 1547,-1246 1547,-1246 1547,-1335 1547,-1335 1547,-1341 1541,-1347 1535,-1347 1535,-1347 1353,-1347 1353,-1347 1347,-1347 1341,-1341 1341,-1335 1341,-1335 1341,-1246 1341,-1246 1341,-1240 1347,-1234 1353,-1234"/>
<text text-anchor="start" x="1349" y="-1333.6" font-family="Helvetica,sans-Serif" font-weight="bold" font-size="13.00">Public internet — optional</text>
</g>
<g id="clust5" class="cluster">
<title>cluster_dc</title>
<path fill="#ffffff" stroke="#1e3a8a" d="M281,-259C281,-259 2198,-259 2198,-259 2204,-259 2210,-265 2210,-271 2210,-271 2210,-1189 2210,-1189 2210,-1195 2204,-1201 2198,-1201 2198,-1201 281,-1201 281,-1201 275,-1201 269,-1195 269,-1189 269,-1189 269,-271 269,-271 269,-265 275,-259 281,-259"/>
<text text-anchor="start" x="277" y="-1187.6" font-family="Helvetica,sans-Serif" font-weight="bold" font-size="13.00">State Emergency Operations Centre — on&#45;prem Kubernetes, no public internet required</text>
</g>
<g id="clust6" class="cluster">
<title>cluster_apps</title>
<path fill="#eff6ff" stroke="#93c5fd" d="M499,-829C499,-829 1414,-829 1414,-829 1420,-829 1426,-835 1426,-841 1426,-841 1426,-1063 1426,-1063 1426,-1069 1420,-1075 1414,-1075 1414,-1075 499,-1075 499,-1075 493,-1075 487,-1069 487,-1063 487,-1063 487,-841 487,-841 487,-835 493,-829 499,-829"/>
<text text-anchor="start" x="495" y="-1061.6" font-family="Helvetica,sans-Serif" font-weight="bold" font-size="13.00">Application services — Kubernetes pods, autoscaled</text>
</g>
<g id="clust9" class="cluster">
<title>cluster_ai</title>
<path fill="#f5f3ff" stroke="#c4b5fd" d="M295,-546.5C295,-546.5 1081,-546.5 1081,-546.5 1087,-546.5 1093,-552.5 1093,-558.5 1093,-558.5 1093,-647.5 1093,-647.5 1093,-653.5 1087,-659.5 1081,-659.5 1081,-659.5 295,-659.5 295,-659.5 289,-659.5 283,-653.5 283,-647.5 283,-647.5 283,-558.5 283,-558.5 283,-552.5 289,-546.5 295,-546.5"/>
<text text-anchor="start" x="291" y="-646.1" font-family="Helvetica,sans-Serif" font-weight="bold" font-size="13.00">AI serving — GPU node pool (offline)</text>
</g>
<g id="clust11" class="cluster">
<title>cluster_data</title>
<path fill="#fffbeb" stroke="#fcd34d" d="M1119,-541C1119,-541 1771,-541 1771,-541 1777,-541 1783,-547 1783,-553 1783,-553 1783,-653 1783,-653 1783,-659 1777,-665 1771,-665 1771,-665 1119,-665 1119,-665 1113,-665 1107,-659 1107,-653 1107,-653 1107,-553 1107,-553 1107,-547 1113,-541 1119,-541"/>
<text text-anchor="start" x="1115" y="-651.6" font-family="Helvetica,sans-Serif" font-weight="bold" font-size="13.00">Data</text>
</g>
<g id="clust13" class="cluster">
<title>cluster_geo</title>
<path fill="#f0fdfa" stroke="#5eead4" d="M1809,-546.5C1809,-546.5 2184,-546.5 2184,-546.5 2190,-546.5 2196,-552.5 2196,-558.5 2196,-558.5 2196,-647.5 2196,-647.5 2196,-653.5 2190,-659.5 2184,-659.5 2184,-659.5 1809,-659.5 1809,-659.5 1803,-659.5 1797,-653.5 1797,-647.5 1797,-647.5 1797,-558.5 1797,-558.5 1797,-552.5 1803,-546.5 1809,-546.5"/>
<text text-anchor="start" x="1805" y="-646.1" font-family="Helvetica,sans-Serif" font-weight="bold" font-size="13.00">Geo (offline)</text>
</g>
<g id="clust15" class="cluster">
<title>cluster_obs</title>
<path fill="#fff7ed" stroke="#fdba74" d="M515,-273C515,-273 1063,-273 1063,-273 1069,-273 1075,-279 1075,-285 1075,-285 1075,-496 1075,-496 1075,-502 1069,-508 1063,-508 1063,-508 515,-508 515,-508 509,-508 503,-502 503,-496 503,-496 503,-285 503,-285 503,-279 509,-273 515,-273"/>
<text text-anchor="start" x="511" y="-494.6" font-family="Helvetica,sans-Serif" font-weight="bold" font-size="13.00">Observability</text>
</g>
<g id="clust17" class="cluster">
<title>cluster_plat</title>
<path fill="#f8fafc" stroke="#cbd5e1" d="M1101,-395C1101,-395 1771,-395 1771,-395 1777,-395 1783,-401 1783,-407 1783,-407 1783,-496 1783,-496 1783,-502 1777,-508 1771,-508 1771,-508 1101,-508 1101,-508 1095,-508 1089,-502 1089,-496 1089,-496 1089,-407 1089,-407 1089,-401 1095,-395 1101,-395"/>
<text text-anchor="start" x="1097" y="-494.6" font-family="Helvetica,sans-Serif" font-weight="bold" font-size="13.00">Platform</text>
</g>
<!-- e_cam -->
<g id="node1" class="node">
<title>e_cam</title>
<polygon fill="white" stroke="transparent" points="22,-1394 22,-1468 194,-1468 194,-1394 22,-1394"/>
<polygon fill="#1d6b47" stroke="transparent" points="23,-1440 23,-1467 193,-1467 193,-1440 23,-1440"/>
<text text-anchor="start" x="29" y="-1450.8" font-family="Helvetica,sans-Serif" font-weight="bold" font-size="14.00" fill="white">Camera sentinels</text>
<text text-anchor="start" x="29" y="-1426" font-family="Helvetica,sans-Serif" font-size="10.00" fill="#1f2937">• detect + local VLM</text>
<text text-anchor="start" x="29" y="-1415" font-family="Helvetica,sans-Serif" font-size="10.00" fill="#1f2937">• signed hazard reports</text>
<text text-anchor="start" x="29" y="-1404" font-family="Helvetica,sans-Serif" font-size="10.00" fill="#1f2937">• no link: hand to a phone (LAN)</text>
<polygon fill="none" stroke="#1d6b47" points="22,-1394 22,-1468 194,-1468 194,-1394 22,-1394"/>
</g>
<!-- n_swan -->
<g id="node9" class="node">
<title>n_swan</title>
<polygon fill="white" stroke="transparent" points="608,-1253.5 608,-1305.5 1128,-1305.5 1128,-1253.5 608,-1253.5"/>
<polygon fill="#374151" stroke="transparent" points="609,-1277.5 609,-1304.5 1039,-1304.5 1039,-1277.5 609,-1277.5"/>
<text text-anchor="start" x="615" y="-1288.3" font-family="Helvetica,sans-Serif" font-weight="bold" font-size="14.00" fill="white">Government network: SWAN / NICNET + VSAT backup</text>
<text text-anchor="start" x="615" y="-1263.5" font-family="Helvetica,sans-Serif" font-size="10.00" fill="#1f2937">• links every district to the state centre</text>
<polygon fill="none" stroke="#374151" points="608,-1253.5 608,-1305.5 1128,-1305.5 1128,-1253.5 608,-1253.5"/>
</g>
<!-- e_cam&#45;&gt;n_swan -->
<g id="edge5" class="edge">
<title>e_cam&#45;&gt;n_swan</title>
<path fill="none" stroke="#2563eb" stroke-width="2.2" d="M172.93,-1393.89C184.37,-1388.59 196.34,-1383.69 208,-1380 334.05,-1340.09 478.85,-1315.99 600.65,-1301.53"/>
<polygon fill="#2563eb" stroke="#2563eb" stroke-width="2.2" points="601.23,-1303.93 607.9,-1300.68 600.66,-1299.07 601.23,-1303.93"/>
</g>
<!-- e_mesh -->
<g id="node2" class="node">
<title>e_mesh</title>
<polygon fill="white" stroke="transparent" points="530,-1399.5 530,-1462.5 710,-1462.5 710,-1399.5 530,-1399.5"/>
<polygon fill="#1d6b47" stroke="transparent" points="531,-1434 531,-1461 709,-1461 709,-1434 531,-1434"/>
<text text-anchor="start" x="537" y="-1444.8" font-family="Helvetica,sans-Serif" font-weight="bold" font-size="14.00" fill="white">bitchat mesh phones</text>
<text text-anchor="start" x="537" y="-1420" font-family="Helvetica,sans-Serif" font-size="10.00" fill="#1f2937">• citizens and crews</text>
<text text-anchor="start" x="537" y="-1409" font-family="Helvetica,sans-Serif" font-size="10.00" fill="#1f2937">• SOS, status, alerts, offline maps</text>
<polygon fill="none" stroke="#1d6b47" points="530,-1399.5 530,-1462.5 710,-1462.5 710,-1399.5 530,-1399.5"/>
</g>
<!-- e_gwp -->
<g id="node3" class="node">
<title>e_gwp</title>
<polygon fill="white" stroke="transparent" points="788,-1405 788,-1457 932,-1457 932,-1405 788,-1405"/>
<polygon fill="#1d6b47" stroke="transparent" points="789,-1429 789,-1456 931,-1456 931,-1429 789,-1429"/>
<text text-anchor="start" x="795" y="-1439.8" font-family="Helvetica,sans-Serif" font-weight="bold" font-size="14.00" fill="white">Gateway phones</text>
<text text-anchor="start" x="795" y="-1415" font-family="Helvetica,sans-Serif" font-size="10.00" fill="#1f2937">• bridge mesh ↔ network</text>
<polygon fill="none" stroke="#1d6b47" points="788,-1405 788,-1457 932,-1457 932,-1405 788,-1405"/>
</g>
<!-- e_mesh&#45;&gt;e_gwp -->
<g id="edge1" class="edge">
<title>e_mesh&#45;&gt;e_gwp</title>
<path fill="none" stroke="#16a34a" stroke-width="1.6" stroke-dasharray="5,2" d="M717.32,-1431C738.39,-1431 760.43,-1431 780.71,-1431"/>
<polygon fill="#16a34a" stroke="#16a34a" stroke-width="1.6" points="717.05,-1428.55 710.05,-1431 717.05,-1433.45 717.05,-1428.55"/>
<polygon fill="#16a34a" stroke="#16a34a" stroke-width="1.6" points="780.8,-1433.45 787.8,-1431 780.8,-1428.55 780.8,-1433.45"/>
<text text-anchor="middle" x="749" y="-1436.8" font-family="Helvetica,sans-Serif" font-size="9.00" fill="#334155"> BLE mesh</text>
</g>
<!-- e_gwp&#45;&gt;n_swan -->
<g id="edge3" class="edge">
<title>e_gwp&#45;&gt;n_swan</title>
<path fill="none" stroke="#2563eb" stroke-width="2.2" d="M861.72,-1397.87C863.06,-1372.73 864.93,-1337.93 866.27,-1312.76"/>
<polygon fill="#2563eb" stroke="#2563eb" stroke-width="2.2" points="859.27,-1397.86 861.34,-1404.98 864.16,-1398.12 859.27,-1397.86"/>
<polygon fill="#2563eb" stroke="#2563eb" stroke-width="2.2" points="868.73,-1312.73 866.66,-1305.6 863.84,-1312.46 868.73,-1312.73"/>
<text text-anchor="middle" x="897.5" y="-1357.8" font-family="Helvetica,sans-Serif" font-size="9.00" fill="#334155"> cellular / VSAT</text>
</g>
<!-- e_pwa -->
<g id="node4" class="node">
<title>e_pwa</title>
<polygon fill="white" stroke="transparent" points="223,-1405 223,-1457 457,-1457 457,-1405 223,-1405"/>
<polygon fill="#1d6b47" stroke="transparent" points="224,-1429 224,-1456 456,-1456 456,-1429 224,-1429"/>
<text text-anchor="start" x="230" y="-1439.8" font-family="Helvetica,sans-Serif" font-weight="bold" font-size="14.00" fill="white">Citizen &amp; Field Portal (PWA)</text>
<text text-anchor="start" x="230" y="-1415" font-family="Helvetica,sans-Serif" font-size="10.00" fill="#1f2937">• offline&#45;capable web app</text>
<polygon fill="none" stroke="#1d6b47" points="223,-1405 223,-1457 457,-1457 457,-1405 223,-1405"/>
</g>
<!-- e_pwa&#45;&gt;e_mesh -->
<g id="edge2" class="edge">
<title>e_pwa&#45;&gt;e_mesh</title>
<path fill="none" stroke="#c2410c" stroke-width="1.2" d="M464.26,-1431C483.72,-1431 503.6,-1431 522.35,-1431"/>
<polygon fill="#c2410c" stroke="#c2410c" stroke-width="1.2" points="464.12,-1428.55 457.12,-1431 464.12,-1433.45 464.12,-1428.55"/>
<polygon fill="#c2410c" stroke="#c2410c" stroke-width="1.2" points="522.76,-1433.45 529.76,-1431 522.76,-1428.55 522.76,-1433.45"/>
<text text-anchor="middle" x="493.5" y="-1436.8" font-family="Helvetica,sans-Serif" font-size="9.00" fill="#334155"> loopback</text>
</g>
<!-- e_k3s -->
<g id="node5" class="node">
<title>e_k3s</title>
<polygon fill="white" stroke="transparent" points="961,-1399.5 961,-1462.5 1121,-1462.5 1121,-1399.5 961,-1399.5"/>
<polygon fill="#1d6b47" stroke="transparent" points="962,-1434 962,-1461 1120,-1461 1120,-1434 962,-1434"/>
<text text-anchor="start" x="968" y="-1444.8" font-family="Helvetica,sans-Serif" font-weight="bold" font-size="14.00" fill="white">District node (k3s)</text>
<text text-anchor="start" x="968" y="-1420" font-family="Helvetica,sans-Serif" font-size="10.00" fill="#1f2937">• local cache + read replica</text>
<text text-anchor="start" x="968" y="-1409" font-family="Helvetica,sans-Serif" font-size="10.00" fill="#1f2937">• serves PWA, tiles, gateway</text>
<polygon fill="none" stroke="#1d6b47" points="961,-1399.5 961,-1462.5 1121,-1462.5 1121,-1399.5 961,-1399.5"/>
</g>
<!-- e_k3s&#45;&gt;n_swan -->
<g id="edge4" class="edge">
<title>e_k3s&#45;&gt;n_swan</title>
<path fill="none" stroke="#2563eb" stroke-width="2.2" d="M1000.19,-1394.74C970.48,-1369.06 930.68,-1334.66 902.54,-1310.34"/>
<polygon fill="#2563eb" stroke="#2563eb" stroke-width="2.2" points="998.68,-1396.66 1005.57,-1399.39 1001.88,-1392.95 998.68,-1396.66"/>
<polygon fill="#2563eb" stroke="#2563eb" stroke-width="2.2" points="903.97,-1308.34 897.07,-1305.62 900.76,-1312.05 903.97,-1308.34"/>
</g>
<!-- u_ctrl -->
<g id="node6" class="node">
<title>u_ctrl</title>
<polygon fill="white" stroke="transparent" points="1157,-1253.5 1157,-1305.5 1319,-1305.5 1319,-1253.5 1157,-1253.5"/>
<polygon fill="#9a5b13" stroke="transparent" points="1158,-1277.5 1158,-1304.5 1318,-1304.5 1318,-1277.5 1158,-1277.5"/>
<text text-anchor="start" x="1164" y="-1288.3" font-family="Helvetica,sans-Serif" font-weight="bold" font-size="14.00" fill="white">State control room</text>
<text text-anchor="start" x="1164" y="-1263.5" font-family="Helvetica,sans-Serif" font-size="10.00" fill="#1f2937">• officers, commanders</text>
<polygon fill="none" stroke="#9a5b13" points="1157,-1253.5 1157,-1305.5 1319,-1305.5 1319,-1253.5 1157,-1253.5"/>
</g>
<!-- gw -->
<g id="node10" class="node">
<title>gw</title>
<polygon fill="white" stroke="transparent" points="713,-1113 713,-1165 1233,-1165 1233,-1113 713,-1113"/>
<polygon fill="#374151" stroke="transparent" points="714,-1137 714,-1164 1011,-1164 1011,-1137 714,-1137"/>
<text text-anchor="start" x="720" y="-1147.8" font-family="Helvetica,sans-Serif" font-weight="bold" font-size="14.00" fill="white">API Gateway (Kong / NGINX Ingress)</text>
<text text-anchor="start" x="720" y="-1123" font-family="Helvetica,sans-Serif" font-size="10.00" fill="#1f2937">• TLS · auth via Keycloak · rate limits · routing</text>
<polygon fill="none" stroke="#374151" points="713,-1113 713,-1165 1233,-1165 1233,-1113 713,-1113"/>
</g>
<!-- u_ctrl&#45;&gt;gw -->
<g id="edge6" class="edge">
<title>u_ctrl&#45;&gt;gw</title>
<path fill="none" stroke="#2563eb" stroke-width="2.2" d="M1190.01,-1253.42C1144.19,-1229.47 1075.23,-1193.43 1027.39,-1168.43"/>
<polygon fill="#2563eb" stroke="#2563eb" stroke-width="2.2" points="1028.42,-1166.2 1021.08,-1165.13 1026.15,-1170.54 1028.42,-1166.2"/>
</g>
<!-- u_dist -->
<g id="node7" class="node">
<title>u_dist</title>
<polygon fill="white" stroke="transparent" points="1157.5,-1405 1157.5,-1457 1292.5,-1457 1292.5,-1405 1157.5,-1405"/>
<polygon fill="#9a5b13" stroke="transparent" points="1159,-1429 1159,-1456 1292,-1456 1292,-1429 1159,-1429"/>
<text text-anchor="start" x="1165" y="-1439.8" font-family="Helvetica,sans-Serif" font-weight="bold" font-size="14.00" fill="white">District officers</text>
<text text-anchor="start" x="1165" y="-1415" font-family="Helvetica,sans-Serif" font-size="10.00" fill="#1f2937">• field coordination</text>
<polygon fill="none" stroke="#9a5b13" points="1157.5,-1405 1157.5,-1457 1292.5,-1457 1292.5,-1405 1157.5,-1405"/>
</g>
<!-- u_dist&#45;&gt;n_swan -->
<g id="edge7" class="edge">
<title>u_dist&#45;&gt;n_swan</title>
<path fill="none" stroke="#2563eb" stroke-width="2.2" d="M1187.01,-1405C1173.17,-1396.46 1157.18,-1387.25 1142,-1380 1081.88,-1351.31 1011.15,-1325.82 956.62,-1307.82"/>
<polygon fill="#2563eb" stroke="#2563eb" stroke-width="2.2" points="957.12,-1305.41 949.71,-1305.56 955.6,-1310.07 957.12,-1305.41"/>
</g>
<!-- x_feeds -->
<g id="node8" class="node">
<title>x_feeds</title>
<polygon fill="white" stroke="transparent" points="1355,-1248 1355,-1311 1527,-1311 1527,-1248 1355,-1248"/>
<polygon fill="#5b6470" stroke="transparent" points="1356,-1282.5 1356,-1309.5 1526,-1309.5 1526,-1282.5 1356,-1282.5"/>
<text text-anchor="start" x="1362" y="-1293.3" font-family="Helvetica,sans-Serif" font-weight="bold" font-size="14.00" fill="white">External feeds</text>
<text text-anchor="start" x="1362" y="-1268.5" font-family="Helvetica,sans-Serif" font-size="10.00" fill="#1f2937">• IMD, GloFAS, satellite imagery</text>
<text text-anchor="start" x="1362" y="-1257.5" font-family="Helvetica,sans-Serif" font-size="10.00" fill="#1f2937">• OSM updates — all cached</text>
<polygon fill="none" stroke="#5b6470" points="1355,-1248 1355,-1311 1527,-1311 1527,-1248 1355,-1248"/>
</g>
<!-- x_feeds&#45;&gt;gw -->
<g id="edge9" class="edge">
<title>x_feeds&#45;&gt;gw</title>
<path fill="none" stroke="#94a3b8" stroke-width="1.2" stroke-dasharray="5,2" d="M1375.88,-1247.95C1364.08,-1242.94 1351.77,-1238.07 1340,-1234 1260.81,-1206.62 1169.56,-1183.21 1097.85,-1166.61"/>
<polygon fill="#94a3b8" stroke="#94a3b8" stroke-width="1.2" points="1098.35,-1164.21 1090.98,-1165.02 1097.25,-1168.98 1098.35,-1164.21"/>
<text text-anchor="middle" x="1324.5" y="-1211.8" font-family="Helvetica,sans-Serif" font-size="9.00" fill="#334155"> optional feeds</text>
</g>
<!-- n_swan&#45;&gt;gw -->
<g id="edge8" class="edge">
<title>n_swan&#45;&gt;gw</title>
<path fill="none" stroke="#2563eb" stroke-width="2.2" d="M882.68,-1247.34C897.95,-1224.44 921.44,-1193.47 940.85,-1170.68"/>
<polygon fill="#2563eb" stroke="#2563eb" stroke-width="2.2" points="880.49,-1246.22 878.71,-1253.42 884.59,-1248.9 880.49,-1246.22"/>
<polygon fill="#2563eb" stroke="#2563eb" stroke-width="2.2" points="942.72,-1172.26 945.43,-1165.36 939.01,-1169.06 942.72,-1172.26"/>
</g>
<!-- n_swan&#45;&gt;gw -->
<!-- k_orch -->
<g id="node13" class="node">
<title>k_orch</title>
<polygon fill="white" stroke="transparent" points="886.5,-976 886.5,-1039 1059.5,-1039 1059.5,-976 886.5,-976"/>
<polygon fill="#1f4e79" stroke="transparent" points="888,-1010.5 888,-1037.5 1059,-1037.5 1059,-1010.5 888,-1010.5"/>
<text text-anchor="start" x="894" y="-1021.3" font-family="Helvetica,sans-Serif" font-weight="bold" font-size="14.00" fill="white">Event Router</text>
<text text-anchor="start" x="894" y="-996.5" font-family="Helvetica,sans-Serif" font-size="10.00" fill="#1f2937">• consumes every topic</text>
<text text-anchor="start" x="894" y="-985.5" font-family="Helvetica,sans-Serif" font-size="10.00" fill="#1f2937">• starts / resumes graph threads</text>
<polygon fill="none" stroke="#1f4e79" points="886.5,-976 886.5,-1039 1059.5,-1039 1059.5,-976 886.5,-976"/>
</g>
<!-- gw&#45;&gt;k_orch -->
<g id="edge10" class="edge">
<title>gw&#45;&gt;k_orch</title>
<path fill="none" stroke="#475569" stroke-width="1.6" d="M973,-1112.72C973,-1103.76 973,-1093.17 973,-1082.23"/>
<polygon fill="#475569" stroke="#475569" stroke-width="1.6" points="975.45,-1082 973,-1075 970.55,-1082 975.45,-1082"/>
</g>
<!-- k_intake -->
<g id="node11" class="node">
<title>k_intake</title>
<polygon fill="white" stroke="transparent" points="1278,-976 1278,-1039 1412,-1039 1412,-976 1278,-976"/>
<polygon fill="#1f4e79" stroke="transparent" points="1279,-1010.5 1279,-1037.5 1411,-1037.5 1411,-1010.5 1279,-1010.5"/>
<text text-anchor="start" x="1285" y="-1021.3" font-family="Helvetica,sans-Serif" font-weight="bold" font-size="14.00" fill="white">Intake Service</text>
<text text-anchor="start" x="1285" y="-996.5" font-family="Helvetica,sans-Serif" font-size="10.00" fill="#1f2937">• reports, voice, sensors</text>
<text text-anchor="start" x="1285" y="-985.5" font-family="Helvetica,sans-Serif" font-size="10.00" fill="#1f2937">• trust, classify, cluster</text>
<polygon fill="none" stroke="#1f4e79" points="1278,-976 1278,-1039 1412,-1039 1412,-976 1278,-976"/>
</g>
<!-- k_mesh -->
<g id="node12" class="node">
<title>k_mesh</title>
<polygon fill="white" stroke="transparent" points="1089,-976 1089,-1039 1249,-1039 1249,-976 1089,-976"/>
<polygon fill="#1f4e79" stroke="transparent" points="1090,-1010.5 1090,-1037.5 1248,-1037.5 1248,-1010.5 1090,-1010.5"/>
<text text-anchor="start" x="1096" y="-1021.3" font-family="Helvetica,sans-Serif" font-weight="bold" font-size="14.00" fill="white">Mesh Gateway API</text>
<text text-anchor="start" x="1096" y="-996.5" font-family="Helvetica,sans-Serif" font-size="10.00" fill="#1f2937">• inbound packets, civ&#45;sync</text>
<text text-anchor="start" x="1096" y="-985.5" font-family="Helvetica,sans-Serif" font-size="10.00" fill="#1f2937">• outbox for gateway phones</text>
<polygon fill="none" stroke="#1f4e79" points="1089,-976 1089,-1039 1249,-1039 1249,-976 1089,-976"/>
</g>
<!-- k_replan -->
<g id="node14" class="node">
<title>k_replan</title>
<polygon fill="white" stroke="transparent" points="657.5,-976 657.5,-1039 828.5,-1039 828.5,-976 657.5,-976"/>
<polygon fill="#0e5e6f" stroke="transparent" points="659,-1010.5 659,-1037.5 828,-1037.5 828,-1010.5 659,-1010.5"/>
<text text-anchor="start" x="665" y="-1021.3" font-family="Helvetica,sans-Serif" font-weight="bold" font-size="14.00" fill="white">Re&#45;planner Workers</text>
<text text-anchor="start" x="665" y="-996.5" font-family="Helvetica,sans-Serif" font-size="10.00" fill="#1f2937">• CP&#45;SAT per city</text>
<text text-anchor="start" x="665" y="-985.5" font-family="Helvetica,sans-Serif" font-size="10.00" fill="#1f2937">• scaled horizontally</text>
<polygon fill="none" stroke="#0e5e6f" points="657.5,-976 657.5,-1039 828.5,-1039 828.5,-976 657.5,-976"/>
</g>
<!-- k_orch&#45;&gt;k_replan -->
<g id="edge12" class="edge">
<title>k_orch&#45;&gt;k_replan</title>
<path fill="none" stroke="#475569" stroke-width="1.2" d="M886.26,-1007.5C869.5,-1007.5 852.74,-1007.5 835.98,-1007.5"/>
<polygon fill="#475569" stroke="#475569" stroke-width="1.2" points="835.8,-1005.05 828.8,-1007.5 835.8,-1009.95 835.8,-1005.05"/>
</g>
<!-- k_agents -->
<g id="node15" class="node">
<title>k_agents</title>
<polygon fill="white" stroke="transparent" points="519,-843 519,-917 689,-917 689,-843 519,-843"/>
<polygon fill="#4c3d8f" stroke="transparent" points="520,-889 520,-916 688,-916 688,-889 520,-889"/>
<text text-anchor="start" x="526" y="-899.8" font-family="Helvetica,sans-Serif" font-weight="bold" font-size="14.00" fill="white">LangGraph Runtime</text>
<text text-anchor="start" x="526" y="-875" font-family="Helvetica,sans-Serif" font-size="10.00" fill="#1f2937">• main graph + subgraphs</text>
<text text-anchor="start" x="526" y="-864" font-family="Helvetica,sans-Serif" font-size="10.00" fill="#1f2937">• Commander, Copilot</text>
<text text-anchor="start" x="526" y="-853" font-family="Helvetica,sans-Serif" font-size="10.00" fill="#1f2937">• checkpoints: pause / resume</text>
<polygon fill="none" stroke="#4c3d8f" points="519,-843 519,-917 689,-917 689,-843 519,-843"/>
</g>
<!-- k_orch&#45;&gt;k_agents -->
<g id="edge11" class="edge">
<title>k_orch&#45;&gt;k_agents</title>
<path fill="none" stroke="#475569" stroke-width="1.2" d="M886.49,-977.08C829.16,-957.58 754.05,-932.03 695.69,-912.18"/>
<polygon fill="#475569" stroke="#475569" stroke-width="1.2" points="696.43,-909.85 689.02,-909.92 694.86,-914.49 696.43,-909.85"/>
</g>
<!-- k_mcp -->
<g id="node16" class="node">
<title>k_mcp</title>
<polygon fill="white" stroke="transparent" points="746.5,-854 746.5,-906 893.5,-906 893.5,-854 746.5,-854"/>
<polygon fill="#1f4e79" stroke="transparent" points="748,-878 748,-905 893,-905 893,-878 748,-878"/>
<text text-anchor="start" x="754" y="-888.8" font-family="Helvetica,sans-Serif" font-weight="bold" font-size="14.00" fill="white">MCP Tool Server</text>
<text text-anchor="start" x="754" y="-864" font-family="Helvetica,sans-Serif" font-size="10.00" fill="#1f2937">• tools, resources, prompts</text>
<polygon fill="none" stroke="#1f4e79" points="746.5,-854 746.5,-906 893.5,-906 893.5,-854 746.5,-854"/>
</g>
<!-- k_agents&#45;&gt;k_mcp -->
<g id="edge13" class="edge">
<title>k_agents&#45;&gt;k_mcp</title>
<path fill="none" stroke="#475569" stroke-width="1.2" d="M689.06,-880C705.44,-880 722.56,-880 738.81,-880"/>
<polygon fill="#475569" stroke="#475569" stroke-width="1.2" points="739.21,-882.45 746.21,-880 739.21,-877.55 739.21,-882.45"/>
<text text-anchor="middle" x="717.75" y="-885.8" font-family="Helvetica,sans-Serif" font-size="9.00" fill="#334155"> tools</text>
</g>
<!-- m_guard -->
<g id="node24" class="node">
<title>m_guard</title>
<polygon fill="white" stroke="transparent" points="296.5,-560.5 296.5,-623.5 473.5,-623.5 473.5,-560.5 296.5,-560.5"/>
<polygon fill="#7a2e2e" stroke="transparent" points="298,-595 298,-622 473,-622 473,-595 298,-595"/>
<text text-anchor="start" x="304" y="-605.8" font-family="Helvetica,sans-Serif" font-weight="bold" font-size="14.00" fill="white">Guardrail models</text>
<text text-anchor="start" x="304" y="-581" font-family="Helvetica,sans-Serif" font-size="10.00" fill="#1f2937">• Llama Guard 3, Prompt Guard 2</text>
<text text-anchor="start" x="304" y="-570" font-family="Helvetica,sans-Serif" font-size="10.00" fill="#1f2937">• NeMo Guardrails, Presidio</text>
<polygon fill="none" stroke="#7a2e2e" points="296.5,-560.5 296.5,-623.5 473.5,-623.5 473.5,-560.5 296.5,-560.5"/>
</g>
<!-- k_agents&#45;&gt;m_guard -->
<g id="edge22" class="edge">
<title>k_agents&#45;&gt;m_guard</title>
<path fill="none" stroke="#4c3d8f" stroke-width="1.2" d="M518.91,-850.4C482.42,-833.91 442.62,-809.47 418,-775 395.72,-743.81 387.05,-702.13 384.13,-666.53"/>
<polygon fill="#4c3d8f" stroke="#4c3d8f" stroke-width="1.2" points="386.57,-666.3 383.62,-659.5 381.68,-666.66 386.57,-666.3"/>
<text text-anchor="middle" x="461" y="-741.3" font-family="Helvetica,sans-Serif" font-size="9.00" fill="#334155"> screened prompts</text>
</g>
<!-- k_gate -->
<g id="node17" class="node">
<title>k_gate</title>
<polygon fill="white" stroke="transparent" points="962,-848.5 962,-911.5 1156,-911.5 1156,-848.5 962,-848.5"/>
<polygon fill="#7a2e2e" stroke="transparent" points="963,-883 963,-910 1155,-910 1155,-883 963,-883"/>
<text text-anchor="start" x="969" y="-893.8" font-family="Helvetica,sans-Serif" font-weight="bold" font-size="14.00" fill="white">Policy Gate &amp; Executor</text>
<text text-anchor="start" x="969" y="-869" font-family="Helvetica,sans-Serif" font-size="10.00" fill="#1f2937">• approve or queue</text>
<text text-anchor="start" x="969" y="-858" font-family="Helvetica,sans-Serif" font-size="10.00" fill="#1f2937">• execute actions</text>
<polygon fill="none" stroke="#7a2e2e" points="962,-848.5 962,-911.5 1156,-911.5 1156,-848.5 962,-848.5"/>
</g>
<!-- k_mcp&#45;&gt;k_gate -->
<g id="edge14" class="edge">
<title>k_mcp&#45;&gt;k_gate</title>
<path fill="none" stroke="#475569" stroke-width="1.2" d="M893.66,-880C912.92,-880 934.06,-880 954.59,-880"/>
<polygon fill="#475569" stroke="#475569" stroke-width="1.2" points="954.82,-882.45 961.82,-880 954.82,-877.55 954.82,-882.45"/>
<text text-anchor="middle" x="927.75" y="-885.8" font-family="Helvetica,sans-Serif" font-size="9.00" fill="#334155"> propose</text>
</g>
<!-- k_comm -->
<g id="node18" class="node">
<title>k_comm</title>
<polygon fill="white" stroke="transparent" points="1214,-848.5 1214,-911.5 1412,-911.5 1412,-848.5 1214,-848.5"/>
<polygon fill="#1f4e79" stroke="transparent" points="1215,-883 1215,-910 1411,-910 1411,-883 1215,-883"/>
<text text-anchor="start" x="1221" y="-893.8" font-family="Helvetica,sans-Serif" font-weight="bold" font-size="14.00" fill="white">Communication Service</text>
<text text-anchor="start" x="1221" y="-869" font-family="Helvetica,sans-Serif" font-size="10.00" fill="#1f2937">• alerts and dispatch</text>
<text text-anchor="start" x="1221" y="-858" font-family="Helvetica,sans-Serif" font-size="10.00" fill="#1f2937">• mesh, push, SMS, cell broadcast</text>
<polygon fill="none" stroke="#1f4e79" points="1214,-848.5 1214,-911.5 1412,-911.5 1412,-848.5 1214,-848.5"/>
</g>
<!-- k_gate&#45;&gt;k_comm -->
<g id="edge15" class="edge">
<title>k_gate&#45;&gt;k_comm</title>
<path fill="none" stroke="#475569" stroke-width="1.2" d="M1156.23,-880C1173.02,-880 1189.81,-880 1206.6,-880"/>
<polygon fill="#475569" stroke="#475569" stroke-width="1.2" points="1206.8,-882.45 1213.8,-880 1206.8,-877.55 1206.8,-882.45"/>
</g>
<!-- kafka -->
<g id="node20" class="node">
<title>kafka</title>
<polygon fill="white" stroke="transparent" points="965,-712 965,-775 1685,-775 1685,-712 965,-712"/>
<polygon fill="#374151" stroke="transparent" points="966,-746.5 966,-773.5 1430,-773.5 1430,-746.5 966,-746.5"/>
<text text-anchor="start" x="972" y="-757.3" font-family="Helvetica,sans-Serif" font-weight="bold" font-size="14.00" fill="white">Apache Kafka — event backbone</text>
<text text-anchor="start" x="972" y="-732.5" font-family="Helvetica,sans-Serif" font-size="10.00" fill="#1f2937">• topics: reports.raw · sensor.events · incidents · plans · dispatch.outbox · agent.steps · audit</text>
<text text-anchor="start" x="972" y="-721.5" font-family="Helvetica,sans-Serif" font-size="10.00" fill="#1f2937">• every service produces and consumes here · durable and replayable</text>
<polygon fill="none" stroke="#374151" points="965,-712 965,-775 1685,-775 1685,-712 965,-712"/>
</g>
<!-- k_gate&#45;&gt;kafka -->
<g id="edge16" class="edge">
<title>k_gate&#45;&gt;kafka</title>
<path fill="none" stroke="#374151" stroke-width="2.2" d="M1164.17,-825.82C1195.79,-809.83 1229.6,-792.74 1258.03,-778.36"/>
<polygon fill="#374151" stroke="#374151" stroke-width="2.2" points="1163.02,-823.66 1157.88,-829 1165.23,-828.03 1163.02,-823.66"/>
<polygon fill="#374151" stroke="#374151" stroke-width="2.2" points="1259.28,-780.48 1264.42,-775.13 1257.07,-776.1 1259.28,-780.48"/>
<text text-anchor="middle" x="1244.5" y="-806.8" font-family="Helvetica,sans-Serif" font-size="9.00" fill="#334155"> produce / consume</text>
</g>
<!-- k_console -->
<g id="node19" class="node">
<title>k_console</title>
<polygon fill="white" stroke="transparent" points="501.5,-981.5 501.5,-1033.5 628.5,-1033.5 628.5,-981.5 501.5,-981.5"/>
<polygon fill="#9a5b13" stroke="transparent" points="503,-1005.5 503,-1032.5 628,-1032.5 628,-1005.5 503,-1005.5"/>
<text text-anchor="start" x="509" y="-1016.3" font-family="Helvetica,sans-Serif" font-weight="bold" font-size="14.00" fill="white">Console (web)</text>
<text text-anchor="start" x="509" y="-991.5" font-family="Helvetica,sans-Serif" font-size="10.00" fill="#1f2937">• officer UI</text>
<polygon fill="none" stroke="#9a5b13" points="501.5,-981.5 501.5,-1033.5 628.5,-1033.5 628.5,-981.5 501.5,-981.5"/>
</g>
<!-- m_llm -->
<g id="node21" class="node">
<title>m_llm</title>
<polygon fill="white" stroke="transparent" points="905,-566 905,-618 1079,-618 1079,-566 905,-566"/>
<polygon fill="#4c3d8f" stroke="transparent" points="906,-590 906,-617 1078,-617 1078,-590 906,-590"/>
<text text-anchor="start" x="912" y="-600.8" font-family="Helvetica,sans-Serif" font-weight="bold" font-size="14.00" fill="white">vLLM — LLM</text>
<text text-anchor="start" x="912" y="-576" font-family="Helvetica,sans-Serif" font-size="10.00" fill="#1f2937">• Llama 3.1 70B / 8B or Qwen2.5</text>
<polygon fill="none" stroke="#4c3d8f" points="905,-566 905,-618 1079,-618 1079,-566 905,-566"/>
</g>
<!-- kafka&#45;&gt;m_llm -->
<!-- d_pg -->
<g id="node25" class="node">
<title>d_pg</title>
<polygon fill="white" stroke="transparent" points="1447.5,-555 1447.5,-629 1768.5,-629 1768.5,-555 1447.5,-555"/>
<polygon fill="#6b5320" stroke="transparent" points="1449,-601 1449,-628 1768,-628 1768,-601 1449,-601"/>
<text text-anchor="start" x="1455" y="-611.8" font-family="Helvetica,sans-Serif" font-weight="bold" font-size="14.00" fill="white">PostgreSQL + PostGIS + pgvector (HA)</text>
<text text-anchor="start" x="1455" y="-587" font-family="Helvetica,sans-Serif" font-size="10.00" fill="#1f2937">• CloudNativePG replicas</text>
<text text-anchor="start" x="1455" y="-576" font-family="Helvetica,sans-Serif" font-size="10.00" fill="#1f2937">• events, incidents, plans</text>
<text text-anchor="start" x="1455" y="-565" font-family="Helvetica,sans-Serif" font-size="10.00" fill="#1f2937">• graph checkpoints, memory store</text>
<polygon fill="none" stroke="#6b5320" points="1447.5,-555 1447.5,-629 1768.5,-629 1768.5,-555 1447.5,-555"/>
</g>
<!-- kafka&#45;&gt;d_pg -->
<g id="edge17" class="edge">
<title>kafka&#45;&gt;d_pg</title>
<path fill="none" stroke="#475569" stroke-width="1.2" d="M1382.95,-711.89C1407.08,-699.14 1436.25,-683.73 1465.48,-668.29"/>
<polygon fill="#475569" stroke="#475569" stroke-width="1.2" points="1466.67,-670.43 1471.71,-665 1464.38,-666.1 1466.67,-670.43"/>
<text text-anchor="middle" x="1466" y="-675.8" font-family="Helvetica,sans-Serif" font-size="9.00" fill="#334155"> persist</text>
</g>
<!-- g_osrm -->
<g id="node28" class="node">
<title>g_osrm</title>
<polygon fill="white" stroke="transparent" points="2010.5,-560.5 2010.5,-623.5 2181.5,-623.5 2181.5,-560.5 2010.5,-560.5"/>
<polygon fill="#0e5e6f" stroke="transparent" points="2012,-595 2012,-622 2181,-622 2181,-595 2012,-595"/>
<text text-anchor="start" x="2018" y="-605.8" font-family="Helvetica,sans-Serif" font-weight="bold" font-size="14.00" fill="white">OSRM</text>
<text text-anchor="start" x="2018" y="-581" font-family="Helvetica,sans-Serif" font-size="10.00" fill="#1f2937">• state road graph</text>
<text text-anchor="start" x="2018" y="-570" font-family="Helvetica,sans-Serif" font-size="10.00" fill="#1f2937">• travel times for the re&#45;planner</text>
<polygon fill="none" stroke="#0e5e6f" points="2010.5,-560.5 2010.5,-623.5 2181.5,-623.5 2181.5,-560.5 2010.5,-560.5"/>
</g>
<!-- kafka&#45;&gt;g_osrm -->
<!-- o_prom -->
<g id="node30" class="node">
<title>o_prom</title>
<polygon fill="white" stroke="transparent" points="863,-409 863,-472 1061,-472 1061,-409 863,-409"/>
<polygon fill="#8a3b12" stroke="transparent" points="864,-443.5 864,-470.5 1060,-470.5 1060,-443.5 864,-443.5"/>
<text text-anchor="start" x="870" y="-454.3" font-family="Helvetica,sans-Serif" font-weight="bold" font-size="14.00" fill="white">Prometheus</text>
<text text-anchor="start" x="870" y="-429.5" font-family="Helvetica,sans-Serif" font-size="10.00" fill="#1f2937">• metrics from every pod</text>
<text text-anchor="start" x="870" y="-418.5" font-family="Helvetica,sans-Serif" font-size="10.00" fill="#1f2937">• queue lag, solver time, LLM latency</text>
<polygon fill="none" stroke="#8a3b12" points="863,-409 863,-472 1061,-472 1061,-409 863,-409"/>
</g>
<!-- m_llm&#45;&gt;o_prom -->
<!-- m_vlm -->
<g id="node22" class="node">
<title>m_vlm</title>
<polygon fill="white" stroke="transparent" points="726.5,-566 726.5,-618 875.5,-618 875.5,-566 726.5,-566"/>
<polygon fill="#4c3d8f" stroke="transparent" points="728,-590 728,-617 875,-617 875,-590 728,-590"/>
<text text-anchor="start" x="734" y="-600.8" font-family="Helvetica,sans-Serif" font-weight="bold" font-size="14.00" fill="white">vLLM — VLM</text>
<text text-anchor="start" x="734" y="-576" font-family="Helvetica,sans-Serif" font-size="10.00" fill="#1f2937">• Qwen2.5&#45;VL photo checks</text>
<polygon fill="none" stroke="#4c3d8f" points="726.5,-566 726.5,-618 875.5,-618 875.5,-566 726.5,-566"/>
</g>
<!-- m_triton -->
<g id="node23" class="node">
<title>m_triton</title>
<polygon fill="white" stroke="transparent" points="502,-566 502,-618 698,-618 698,-566 502,-566"/>
<polygon fill="#1f4e79" stroke="transparent" points="503,-590 503,-617 697,-617 697,-590 503,-590"/>
<text text-anchor="start" x="509" y="-600.8" font-family="Helvetica,sans-Serif" font-weight="bold" font-size="14.00" fill="white">Triton Inference Server</text>
<text text-anchor="start" x="509" y="-576" font-family="Helvetica,sans-Serif" font-size="10.00" fill="#1f2937">• XLM&#45;R classifier, YOLO</text>
<polygon fill="none" stroke="#1f4e79" points="502,-566 502,-618 698,-618 698,-566 502,-566"/>
</g>
<!-- d_pg&#45;&gt;o_prom -->
<g id="edge23" class="edge">
<title>d_pg&#45;&gt;o_prom</title>
<path fill="none" stroke="#8a3b12" stroke-width="1.2" stroke-dasharray="1,5" d="M1493.41,-555C1473.42,-549.66 1452.72,-544.71 1433,-541 1279.02,-512.02 1231.69,-554.29 1082,-508 1058.08,-500.6 1033.57,-488.07 1012.99,-475.86"/>
<polygon fill="#8a3b12" stroke="#8a3b12" stroke-width="1.2" points="1013.99,-473.6 1006.73,-472.09 1011.46,-477.8 1013.99,-473.6"/>
<text text-anchor="middle" x="1240.5" y="-518.8" font-family="Helvetica,sans-Serif" font-size="9.00" fill="#334155"> metrics · logs · traces from every pod</text>
</g>
<!-- p_kc -->
<g id="node35" class="node">
<title>p_kc</title>
<polygon fill="white" stroke="transparent" points="1625,-409 1625,-472 1769,-472 1769,-409 1625,-409"/>
<polygon fill="#374151" stroke="transparent" points="1626,-443.5 1626,-470.5 1768,-470.5 1768,-443.5 1626,-443.5"/>
<text text-anchor="start" x="1632" y="-454.3" font-family="Helvetica,sans-Serif" font-weight="bold" font-size="14.00" fill="white">Keycloak</text>
<text text-anchor="start" x="1632" y="-429.5" font-family="Helvetica,sans-Serif" font-size="10.00" fill="#1f2937">• SSO and roles</text>
<text text-anchor="start" x="1632" y="-418.5" font-family="Helvetica,sans-Serif" font-size="10.00" fill="#1f2937">• for gateway and console</text>
<polygon fill="none" stroke="#374151" points="1625,-409 1625,-472 1769,-472 1769,-409 1625,-409"/>
</g>
<!-- d_pg&#45;&gt;p_kc -->
<!-- d_redis -->
<g id="node26" class="node">
<title>d_redis</title>
<polygon fill="white" stroke="transparent" points="1286,-566 1286,-618 1418,-618 1418,-566 1286,-566"/>
<polygon fill="#6b5320" stroke="transparent" points="1287,-590 1287,-617 1417,-617 1417,-590 1287,-590"/>
<text text-anchor="start" x="1293" y="-600.8" font-family="Helvetica,sans-Serif" font-weight="bold" font-size="14.00" fill="white">Redis</text>
<text text-anchor="start" x="1293" y="-576" font-family="Helvetica,sans-Serif" font-size="10.00" fill="#1f2937">• cache, locks, sessions</text>
<polygon fill="none" stroke="#6b5320" points="1286,-566 1286,-618 1418,-618 1418,-566 1286,-566"/>
</g>
<!-- d_minio -->
<g id="node27" class="node">
<title>d_minio</title>
<polygon fill="white" stroke="transparent" points="1121.5,-566 1121.5,-618 1256.5,-618 1256.5,-566 1121.5,-566"/>
<polygon fill="#6b5320" stroke="transparent" points="1123,-590 1123,-617 1256,-617 1256,-590 1123,-590"/>
<text text-anchor="start" x="1129" y="-600.8" font-family="Helvetica,sans-Serif" font-weight="bold" font-size="14.00" fill="white">MinIO</text>
<text text-anchor="start" x="1129" y="-576" font-family="Helvetica,sans-Serif" font-size="10.00" fill="#1f2937">• photos, clips, evidence</text>
<polygon fill="none" stroke="#6b5320" points="1121.5,-566 1121.5,-618 1256.5,-618 1256.5,-566 1121.5,-566"/>
</g>
<!-- g_tiles -->
<g id="node29" class="node">
<title>g_tiles</title>
<polygon fill="white" stroke="transparent" points="1811,-560.5 1811,-623.5 1981,-623.5 1981,-560.5 1811,-560.5"/>
<polygon fill="#0e5e6f" stroke="transparent" points="1812,-595 1812,-622 1980,-622 1980,-595 1812,-595"/>
<text text-anchor="start" x="1818" y="-605.8" font-family="Helvetica,sans-Serif" font-weight="bold" font-size="14.00" fill="white">Tile server</text>
<text text-anchor="start" x="1818" y="-581" font-family="Helvetica,sans-Serif" font-size="10.00" fill="#1f2937">• OSM extract</text>
<text text-anchor="start" x="1818" y="-570" font-family="Helvetica,sans-Serif" font-size="10.00" fill="#1f2937">• map packs pushed to districts</text>
<polygon fill="none" stroke="#0e5e6f" points="1811,-560.5 1811,-623.5 1981,-623.5 1981,-560.5 1811,-560.5"/>
</g>
<!-- o_graf -->
<g id="node33" class="node">
<title>o_graf</title>
<polygon fill="white" stroke="transparent" points="690.5,-287 690.5,-350 867.5,-350 867.5,-287 690.5,-287"/>
<polygon fill="#8a3b12" stroke="transparent" points="692,-321.5 692,-348.5 867,-348.5 867,-321.5 692,-321.5"/>
<text text-anchor="start" x="698" y="-332.3" font-family="Helvetica,sans-Serif" font-weight="bold" font-size="14.00" fill="white">Grafana</text>
<text text-anchor="start" x="698" y="-307.5" font-family="Helvetica,sans-Serif" font-size="10.00" fill="#1f2937">• dashboards: operations, agents</text>
<text text-anchor="start" x="698" y="-296.5" font-family="Helvetica,sans-Serif" font-size="10.00" fill="#1f2937">• mesh gateways, GPUs</text>
<polygon fill="none" stroke="#8a3b12" points="690.5,-287 690.5,-350 867.5,-350 867.5,-287 690.5,-287"/>
</g>
<!-- o_prom&#45;&gt;o_graf -->
<g id="edge24" class="edge">
<title>o_prom&#45;&gt;o_graf</title>
<path fill="none" stroke="#475569" stroke-width="1.2" d="M915.35,-408.91C889.75,-392.12 857.93,-371.26 831.47,-353.91"/>
<polygon fill="#475569" stroke="#475569" stroke-width="1.2" points="832.76,-351.83 825.57,-350.04 830.08,-355.92 832.76,-351.83"/>
</g>
<!-- o_alert -->
<g id="node34" class="node">
<title>o_alert</title>
<polygon fill="white" stroke="transparent" points="896.5,-292.5 896.5,-344.5 1049.5,-344.5 1049.5,-292.5 896.5,-292.5"/>
<polygon fill="#8a3b12" stroke="transparent" points="898,-316.5 898,-343.5 1049,-343.5 1049,-316.5 898,-316.5"/>
<text text-anchor="start" x="904" y="-327.3" font-family="Helvetica,sans-Serif" font-weight="bold" font-size="14.00" fill="white">Alertmanager</text>
<text text-anchor="start" x="904" y="-302.5" font-family="Helvetica,sans-Serif" font-size="10.00" fill="#1f2937">• pages the on&#45;call engineer</text>
<polygon fill="none" stroke="#8a3b12" points="896.5,-292.5 896.5,-344.5 1049.5,-344.5 1049.5,-292.5 896.5,-292.5"/>
</g>
<!-- o_prom&#45;&gt;o_alert -->
<g id="edge27" class="edge">
<title>o_prom&#45;&gt;o_alert</title>
<path fill="none" stroke="#475569" stroke-width="1.2" d="M964.8,-408.91C966.4,-391.53 968.39,-369.78 970.01,-352.09"/>
<polygon fill="#475569" stroke="#475569" stroke-width="1.2" points="972.48,-351.97 970.68,-344.77 967.6,-351.52 972.48,-351.97"/>
</g>
<!-- o_loki -->
<g id="node31" class="node">
<title>o_loki</title>
<polygon fill="white" stroke="transparent" points="752.5,-414.5 752.5,-466.5 833.5,-466.5 833.5,-414.5 752.5,-414.5"/>
<polygon fill="#8a3b12" stroke="transparent" points="754,-438.5 754,-465.5 833,-465.5 833,-438.5 754,-438.5"/>
<text text-anchor="start" x="760" y="-449.3" font-family="Helvetica,sans-Serif" font-weight="bold" font-size="14.00" fill="white">Loki</text>
<text text-anchor="start" x="760" y="-424.5" font-family="Helvetica,sans-Serif" font-size="10.00" fill="#1f2937">• central logs</text>
<polygon fill="none" stroke="#8a3b12" points="752.5,-414.5 752.5,-466.5 833.5,-466.5 833.5,-414.5 752.5,-414.5"/>
</g>
<!-- o_loki&#45;&gt;o_graf -->
<g id="edge25" class="edge">
<title>o_loki&#45;&gt;o_graf</title>
<path fill="none" stroke="#475569" stroke-width="1.2" d="M790.07,-414.34C788.14,-397.84 785.59,-375.96 783.42,-357.37"/>
<polygon fill="#475569" stroke="#475569" stroke-width="1.2" points="785.82,-356.83 782.58,-350.16 780.95,-357.4 785.82,-356.83"/>
</g>
<!-- o_tempo -->
<g id="node32" class="node">
<title>o_tempo</title>
<polygon fill="white" stroke="transparent" points="517,-414.5 517,-466.5 723,-466.5 723,-414.5 517,-414.5"/>
<polygon fill="#8a3b12" stroke="transparent" points="518,-438.5 518,-465.5 722,-465.5 722,-438.5 518,-438.5"/>
<text text-anchor="start" x="524" y="-449.3" font-family="Helvetica,sans-Serif" font-weight="bold" font-size="14.00" fill="white">Tempo + OpenTelemetry</text>
<text text-anchor="start" x="524" y="-424.5" font-family="Helvetica,sans-Serif" font-size="10.00" fill="#1f2937">• traces across agents and tools</text>
<polygon fill="none" stroke="#8a3b12" points="517,-414.5 517,-466.5 723,-466.5 723,-414.5 517,-414.5"/>
</g>
<!-- o_tempo&#45;&gt;o_graf -->
<g id="edge26" class="edge">
<title>o_tempo&#45;&gt;o_graf</title>
<path fill="none" stroke="#475569" stroke-width="1.2" d="M653.33,-414.34C676.36,-396.96 707.29,-373.62 732.71,-354.44"/>
<polygon fill="#475569" stroke="#475569" stroke-width="1.2" points="734.26,-356.33 738.38,-350.16 731.31,-352.42 734.26,-356.33"/>
</g>
<!-- legend -->
<g id="node39" class="node">
<title>legend</title>
<text text-anchor="start" x="703" y="-203.3" font-family="Helvetica,sans-Serif" font-weight="bold" font-size="14.00">Legend</text>
<polygon fill="#4c3d8f" stroke="transparent" points="700,-171.5 700,-192.5 714,-192.5 714,-171.5 700,-171.5"/>
<text text-anchor="start" x="704.5" y="-178.3" font-family="Helvetica,sans-Serif" font-size="14.00"> </text>
<text text-anchor="start" x="720" y="-179.5" font-family="Helvetica,sans-Serif" font-size="10.00">model serving / LLM agents</text>
<polygon fill="#1f4e79" stroke="transparent" points="700,-147.5 700,-168.5 714,-168.5 714,-147.5 700,-147.5"/>
<text text-anchor="start" x="704.5" y="-154.3" font-family="Helvetica,sans-Serif" font-size="14.00"> </text>
<text text-anchor="start" x="720" y="-155.5" font-family="Helvetica,sans-Serif" font-size="10.00">application service</text>
<polygon fill="#0e5e6f" stroke="transparent" points="700,-123.5 700,-144.5 714,-144.5 714,-123.5 700,-123.5"/>
<text text-anchor="start" x="704.5" y="-130.3" font-family="Helvetica,sans-Serif" font-size="14.00"> </text>
<text text-anchor="start" x="720" y="-131.5" font-family="Helvetica,sans-Serif" font-size="10.00">optimisation / geo</text>
<polygon fill="#7a2e2e" stroke="transparent" points="700,-99.5 700,-120.5 714,-120.5 714,-99.5 700,-99.5"/>
<text text-anchor="start" x="704.5" y="-106.3" font-family="Helvetica,sans-Serif" font-size="14.00"> </text>
<text text-anchor="start" x="720" y="-107.5" font-family="Helvetica,sans-Serif" font-size="10.00">governance / safety</text>
<polygon fill="#6b5320" stroke="transparent" points="700,-75.5 700,-96.5 714,-96.5 714,-75.5 700,-75.5"/>
<text text-anchor="start" x="704.5" y="-82.3" font-family="Helvetica,sans-Serif" font-size="14.00"> </text>
<text text-anchor="start" x="720" y="-83.5" font-family="Helvetica,sans-Serif" font-size="10.00">data</text>
<polygon fill="#8a3b12" stroke="transparent" points="700,-51.5 700,-72.5 714,-72.5 714,-51.5 700,-51.5"/>
<text text-anchor="start" x="704.5" y="-58.3" font-family="Helvetica,sans-Serif" font-size="14.00"> </text>
<text text-anchor="start" x="720" y="-59.5" font-family="Helvetica,sans-Serif" font-size="10.00">observability</text>
<polygon fill="#374151" stroke="transparent" points="700,-27.5 700,-48.5 714,-48.5 714,-27.5 700,-27.5"/>
<text text-anchor="start" x="704.5" y="-34.3" font-family="Helvetica,sans-Serif" font-size="14.00"> </text>
<text text-anchor="start" x="720" y="-35.5" font-family="Helvetica,sans-Serif" font-size="10.00">platform / network</text>
<polygon fill="#1d6b47" stroke="transparent" points="700,-3.5 700,-24.5 714,-24.5 714,-3.5 700,-3.5"/>
<text text-anchor="start" x="704.5" y="-10.3" font-family="Helvetica,sans-Serif" font-size="14.00"> </text>
<text text-anchor="start" x="720" y="-11.5" font-family="Helvetica,sans-Serif" font-size="10.00">field / edge</text>
<polygon fill="none" stroke="#cbd5e1" points="696,0 696,-221 862,-221 862,0 696,0"/>
</g>
<!-- o_graf&#45;&gt;legend -->
<!-- p_vault -->
<g id="node36" class="node">
<title>p_vault</title>
<polygon fill="white" stroke="transparent" points="1418.5,-414.5 1418.5,-466.5 1595.5,-466.5 1595.5,-414.5 1418.5,-414.5"/>
<polygon fill="#374151" stroke="transparent" points="1420,-438.5 1420,-465.5 1595,-465.5 1595,-438.5 1420,-438.5"/>
<text text-anchor="start" x="1426" y="-449.3" font-family="Helvetica,sans-Serif" font-weight="bold" font-size="14.00" fill="white">Vault</text>
<text text-anchor="start" x="1426" y="-424.5" font-family="Helvetica,sans-Serif" font-size="10.00" fill="#1f2937">• secrets, HMAC + gateway keys</text>
<polygon fill="none" stroke="#374151" points="1418.5,-414.5 1418.5,-466.5 1595.5,-466.5 1595.5,-414.5 1418.5,-414.5"/>
</g>
<!-- p_argo -->
<g id="node37" class="node">
<title>p_argo</title>
<polygon fill="white" stroke="transparent" points="1242.5,-409 1242.5,-472 1389.5,-472 1389.5,-409 1242.5,-409"/>
<polygon fill="#374151" stroke="transparent" points="1244,-443.5 1244,-470.5 1389,-470.5 1389,-443.5 1244,-443.5"/>
<text text-anchor="start" x="1250" y="-454.3" font-family="Helvetica,sans-Serif" font-weight="bold" font-size="14.00" fill="white">Argo CD</text>
<text text-anchor="start" x="1250" y="-429.5" font-family="Helvetica,sans-Serif" font-size="10.00" fill="#1f2937">• GitOps deploys to</text>
<text text-anchor="start" x="1250" y="-418.5" font-family="Helvetica,sans-Serif" font-size="10.00" fill="#1f2937">• state and district clusters</text>
<polygon fill="none" stroke="#374151" points="1242.5,-409 1242.5,-472 1389.5,-472 1389.5,-409 1242.5,-409"/>
</g>
<!-- p_harbor -->
<g id="node38" class="node">
<title>p_harbor</title>
<polygon fill="white" stroke="transparent" points="1103,-414.5 1103,-466.5 1213,-466.5 1213,-414.5 1103,-414.5"/>
<polygon fill="#374151" stroke="transparent" points="1104,-438.5 1104,-465.5 1212,-465.5 1212,-438.5 1104,-438.5"/>
<text text-anchor="start" x="1110" y="-449.3" font-family="Helvetica,sans-Serif" font-weight="bold" font-size="14.00" fill="white">Harbor</text>
<text text-anchor="start" x="1110" y="-424.5" font-family="Helvetica,sans-Serif" font-size="10.00" fill="#1f2937">• container registry</text>
<polygon fill="none" stroke="#374151" points="1103,-414.5 1103,-466.5 1213,-466.5 1213,-414.5 1103,-414.5"/>
</g>
</g>
</svg>
